<svg xmlns="http://www.w3.org/2000/svg" viewBox="0 0 500 500"><g id="freepik--Plant--inject-56"><g style="opacity:0.30000000000000004"><path d="M140.79,378.42a.53.53,0,0,0-.79-.26c-22.27,15-36.57,43.31-37.33,73.79a.87.87,0,0,0,0,.28h1.07a.64.64,0,0,0,0-.24c.75-30,14.82-57.83,36.73-72.62A.77.77,0,0,0,140.79,378.42Z"></path><path d="M117.56,428.25c-6.56-3.36-12.8,8.2-12.59,8.46-.29,1.42-.56,2.85-.79,4.3.85-1.69,4.5-3.75,9.87-4.17C119.36,436.19,123.91,431.17,117.56,428.25Z"></path><path d="M98.25,419.61c-6.54-3-6.53,8.49-1.83,12.21,4.5,3.84,7.27,7.27,7.66,9.17.15-1.47.33-2.92.54-4.37C104.35,436.67,104.35,422.74,98.25,419.61Z"></path><path d="M122.11,416.85c-6-4.6-13.73,5.41-13.56,5.69-.49,1.32-1,2.65-1.38,4,1.07-1.46,5-2.71,10.3-2C122.79,425,128,421,122.11,416.85Z"></path><path d="M104.29,404.47c-6-4.27-7.6,7-3.49,11.56,3.91,4.65,6.15,8.56,6.28,10.48.35-1.39.73-2.77,1.14-4.13C107.94,422.39,109.87,408.79,104.29,404.47Z"></path><path d="M128.17,406.57c-5.27-5.73-14.27,2.56-14.14,2.86-.66,1.19-1.3,2.41-1.91,3.65,1.25-1.21,5.25-1.65,10.41.1C127.71,414.71,133.36,411.83,128.17,406.57Z"></path><path d="M112.35,390.81c-5.34-5.41-8.46,5.35-5,10.67,3.2,5.36,4.88,9.64,4.73,11.54.54-1.29,1.1-2.56,1.69-3.81C113.45,409.18,117.23,396.19,112.35,390.81Z"></path><path d="M135.61,397.62c-4.4-6.69-14.45-.29-14.37,0-.81,1.05-1.61,2.12-2.38,3.21,1.4-.93,5.4-.57,10.24,2.19C134,405.58,140,403.85,135.61,397.62Z"></path><path d="M122.22,378.93c-4.51-6.4-9.12,3.61-6.49,9.54,2.4,5.91,3.45,10.47,3,12.31.71-1.16,1.44-2.3,2.2-3.42C120.7,397.28,126.27,385.21,122.22,378.93Z"></path><path d="M144.27,390.24c-3.4-7.49-14.29-3.13-14.24-2.81-.95.88-1.89,1.78-2.81,2.71,1.51-.65,5.41.49,9.81,4.18C141.49,397.79,147.68,397.25,144.27,390.24Z"></path><path d="M133.72,369.12c-3.54-7.21-9.57,1.79-7.82,8.16,1.53,6.32,1.91,11,1.25,12.77.86-1,1.75-2,2.66-2.94C129.54,387,136.81,376.13,133.72,369.12Z"></path><path d="M135.54,382.22c-.18-.05,6.48-9.62,11.64-12.57,5-3.06,8.1.67,7.87,3.58s-3.74,4.9-6.94,5.78A117.82,117.82,0,0,0,135.54,382.22Z"></path><path d="M135.5,382.68h-.05a.46.46,0,0,1-.3-.41v0a.38.38,0,0,1,.12-.34c1-2,7.31-10.11,11.74-12.64,2.46-1.52,4.86-1.59,6.59-.2a5.06,5.06,0,0,1,1.84,4.23c-.26,4-5.61,5.74-7.24,6.19-3.15.55-11.65,2.78-12.43,3.13A.34.34,0,0,1,135.5,382.68ZM151.23,369a5.87,5.87,0,0,0-3.87,1.07c-4.07,2.32-9,8.74-10.8,11.29.79-.24,2-.56,4-1.07,2.5-.64,5.79-1.44,7.52-1.74,3.07-.85,6.44-2.7,6.62-5.36a4.09,4.09,0,0,0-1.51-3.38A3.73,3.73,0,0,0,151.23,369Z"></path><path d="M97.65,452.23c-13.39-43.27-7-92.56,16.89-128.91a1.21,1.21,0,0,0-.16-1.51.81.81,0,0,0-1.27.18C89,358.72,82.42,408.44,95.73,452.23Z"></path><path d="M105.85,409.62c-11.08-.18-14.27,20.78-13.85,21q.44,3.36,1,6.71c.38-3,4.59-8.54,12.08-12.93C112.38,419.73,116.41,409.33,105.85,409.62Z"></path><path d="M73.87,410.85c-10.87.29-5.14,16.78,3.45,18.8,8.36,2.32,14,5.3,15.54,7.74q-.78-3.31-1.39-6.64C91.1,431,84.17,411,73.87,410.85Z"></path><path d="M106.71,390.07c-10.89-2.37-17,17.43-16.62,17.72q-.06,3.34,0,6.71c.8-2.83,5.74-7.37,13.75-10.15C111.72,401.26,117.16,391.9,106.71,390.07Z"></path><path d="M75,384.89c-10.75-1.88-7.42,15.37.75,19,7.91,3.92,13.07,7.94,14.2,10.6q-.28-3.36-.42-6.72C89.15,408,85.15,387.15,75,384.89Z"></path><path d="M110.29,371.06c-10.4-4.49-19.19,13.74-18.86,14.07q-.53,3.27-.92,6.58c1.2-2.62,6.7-6.07,15-7.19C113.67,383.06,120.34,375,110.29,371.06Z"></path><path d="M79.77,359.63c-10.34-4-9.47,13.64-1.93,18.85,7.25,5.42,11.78,10.38,12.51,13.21q.2-3.35.54-6.66C90.48,385.18,89.44,363.89,79.77,359.63Z"></path><path d="M116.5,353c-9.64-6.49-20.86,9.77-20.58,10.15q-1,3.12-1.83,6.29c1.54-2.33,7.46-4.63,15.78-4.09C118.13,365.54,125.85,358.84,116.5,353Z"></path><path d="M88,335.64c-9.63-6-11.26,11.61-4.56,18.24,6.39,6.79,10.16,12.58,10.49,15.5q.66-3.24,1.46-6.44C95,363,96.94,341.79,88,335.64Z"></path><path d="M125.24,336.3c-8.59-8.34-22,5.59-21.8,6-.94,1.93-1.83,3.88-2.69,5.86,1.85-2,8-3.1,16.15-.93C125,349.08,133.62,343.94,125.24,336.3Z"></path><path d="M99.63,313.46c-8.66-7.84-12.84,9.31-7.16,17.21,5.33,8,8.23,14.47,8.14,17.42Q101.72,345,103,342C102.51,342,107.53,321.33,99.63,313.46Z"></path></g></g><g id="freepik--Shelves--inject-56"><path d="M467.31,452.5H316.25a.5.5,0,0,1-.5-.5V293a.5.5,0,0,1,.5-.5H467.31a.5.5,0,0,1,.5.5V452A.5.5,0,0,1,467.31,452.5Zm-150.56-1H466.81v-158H316.75Z" style="fill:#a6a6a6"></path><path d="M462.22,447.72H319.78a.5.5,0,0,1-.5-.5V297a.5.5,0,0,1,.5-.5H462.22a.5.5,0,0,1,.5.5V447.22A.5.5,0,0,1,462.22,447.72Zm-141.94-1H461.72V297.48H320.28Z" style="fill:#a6a6a6"></path><path d="M462.22,350H319.78a.5.5,0,0,1-.5-.5V345a.5.5,0,0,1,.5-.5H462.22a.5.5,0,0,1,.5.5v4.5A.5.5,0,0,1,462.22,350Zm-141.94-1H461.72v-3.5H320.28Z" style="fill:#a6a6a6"></path><path d="M416.31,397.36h-3a.5.5,0,0,1-.5-.5V349.55a.5.5,0,0,1,.5-.5h3a.5.5,0,0,1,.5.5v47.31A.5.5,0,0,1,416.31,397.36Zm-2.53-1h2V350.05h-2Z" style="fill:#a6a6a6"></path><path d="M367.89,397.36h-3a.5.5,0,0,1-.5-.5V349.55a.5.5,0,0,1,.5-.5h3a.5.5,0,0,1,.5.5v47.31A.5.5,0,0,1,367.89,397.36Zm-2.52-1h2V350.05h-2Z" style="fill:#a6a6a6"></path><path d="M391.87,345.49h-3a.5.5,0,0,1-.5-.5V297.68a.5.5,0,0,1,.5-.5h3a.5.5,0,0,1,.5.5V345A.5.5,0,0,1,391.87,345.49Zm-2.53-1h2V298.18h-2Z" style="fill:#a6a6a6"></path><path d="M462.22,401.87H319.78a.5.5,0,0,1-.5-.5v-4.5a.5.5,0,0,1,.5-.5H462.22a.5.5,0,0,1,.5.5v4.5A.5.5,0,0,1,462.22,401.87Zm-141.94-1H461.72v-3.5H320.28Z" style="fill:#a6a6a6"></path><path d="M376.8,397.21h-7.31a.5.5,0,0,1-.5-.5V353.18a.5.5,0,0,1,.5-.5h7.31a.5.5,0,0,1,.5.5v43.53A.5.5,0,0,1,376.8,397.21Zm-6.81-1h6.31V353.68H370Z" style="fill:#a6a6a6"></path><path d="M376.8,391.43h-7.31a.5.5,0,0,1-.5-.5v-3.57a.5.5,0,0,1,.5-.5h7.31a.5.5,0,0,1,.5.5v3.57A.5.5,0,0,1,376.8,391.43Zm-6.81-1h6.31v-2.57H370Z" style="fill:#a6a6a6"></path><path d="M376.8,361.67h-7.31a.5.5,0,0,1-.5-.5V357.6a.5.5,0,0,1,.5-.5h7.31a.5.5,0,0,1,.5.5v3.57A.5.5,0,0,1,376.8,361.67Zm-6.81-1h6.31V358.1H370Z" style="fill:#a6a6a6"></path><path d="M384.29,397.21H377a.5.5,0,0,1-.5-.5V353.18a.5.5,0,0,1,.5-.5h7.32a.5.5,0,0,1,.5.5v43.53A.5.5,0,0,1,384.29,397.21Zm-6.82-1h6.32V353.68h-6.32Z" style="fill:#a6a6a6"></path><path d="M384.29,391.43H377a.5.5,0,0,1-.5-.5v-3.57a.5.5,0,0,1,.5-.5h7.32a.5.5,0,0,1,.5.5v3.57A.5.5,0,0,1,384.29,391.43Zm-6.82-1h6.32v-2.57h-6.32Z" style="fill:#a6a6a6"></path><path d="M384.29,361.67H377a.5.5,0,0,1-.5-.5V357.6a.5.5,0,0,1,.5-.5h7.32a.5.5,0,0,1,.5.5v3.57A.5.5,0,0,1,384.29,361.67Zm-6.82-1h6.32V358.1h-6.32Z" style="fill:#a6a6a6"></path><path d="M391.77,397.21h-7.31a.5.5,0,0,1-.5-.5V353.18a.5.5,0,0,1,.5-.5h7.31a.5.5,0,0,1,.5.5v43.53A.5.5,0,0,1,391.77,397.21Zm-6.81-1h6.31V353.68H385Z" style="fill:#a6a6a6"></path><path d="M391.77,391.43h-7.31a.5.5,0,0,1-.5-.5v-3.57a.5.5,0,0,1,.5-.5h7.31a.5.5,0,0,1,.5.5v3.57A.5.5,0,0,1,391.77,391.43Zm-6.81-1h6.31v-2.57H385Z" style="fill:#a6a6a6"></path><path d="M391.77,361.67h-7.31a.5.5,0,0,1-.5-.5V357.6a.5.5,0,0,1,.5-.5h7.31a.5.5,0,0,1,.5.5v3.57A.5.5,0,0,1,391.77,361.67Zm-6.81-1h6.31V358.1H385Z" style="fill:#a6a6a6"></path><path d="M399.25,397.21h-7.31a.5.5,0,0,1-.5-.5V353.18a.5.5,0,0,1,.5-.5h7.31a.5.5,0,0,1,.5.5v43.53A.5.5,0,0,1,399.25,397.21Zm-6.81-1h6.31V353.68h-6.31Z" style="fill:#a6a6a6"></path><path d="M411.43,397.21H399.19a.5.5,0,0,1-.5-.5V353.18a.5.5,0,0,1,.5-.5h12.24a.5.5,0,0,1,.5.5v43.53A.5.5,0,0,1,411.43,397.21Zm-11.74-1h11.24V353.68H399.69Z" style="fill:#a6a6a6"></path><path d="M399.25,391.43h-7.31a.5.5,0,0,1-.5-.5v-3.57a.5.5,0,0,1,.5-.5h7.31a.5.5,0,0,1,.5.5v3.57A.5.5,0,0,1,399.25,391.43Zm-6.81-1h6.31v-2.57h-6.31Z" style="fill:#a6a6a6"></path><path d="M399.25,361.67h-7.31a.5.5,0,0,1-.5-.5V357.6a.5.5,0,0,1,.5-.5h7.31a.5.5,0,0,1,.5.5v3.57A.5.5,0,0,1,399.25,361.67Zm-6.81-1h6.31V358.1h-6.31Z" style="fill:#a6a6a6"></path><path d="M425.1,397.21h-7.31a.5.5,0,0,1-.5-.5V353.18a.5.5,0,0,1,.5-.5h7.31a.5.5,0,0,1,.5.5v43.53A.5.5,0,0,1,425.1,397.21Zm-6.81-1h6.31V353.68h-6.31Z" style="fill:#a6a6a6"></path><path d="M425.1,391.43h-7.31a.5.5,0,0,1-.5-.5v-3.57a.5.5,0,0,1,.5-.5h7.31a.5.5,0,0,1,.5.5v3.57A.5.5,0,0,1,425.1,391.43Zm-6.81-1h6.31v-2.57h-6.31Z" style="fill:#a6a6a6"></path><path d="M425.1,361.67h-7.31a.5.5,0,0,1-.5-.5V357.6a.5.5,0,0,1,.5-.5h7.31a.5.5,0,0,1,.5.5v3.57A.5.5,0,0,1,425.1,361.67Zm-6.81-1h6.31V358.1h-6.31Z" style="fill:#a6a6a6"></path><path d="M432.58,397.21h-7.31a.5.5,0,0,1-.5-.5V353.18a.5.5,0,0,1,.5-.5h7.31a.5.5,0,0,1,.5.5v43.53A.5.5,0,0,1,432.58,397.21Zm-6.81-1h6.31V353.68h-6.31Z" style="fill:#a6a6a6"></path><path d="M432.58,391.43h-7.31a.5.5,0,0,1-.5-.5v-3.57a.5.5,0,0,1,.5-.5h7.31a.5.5,0,0,1,.5.5v3.57A.5.5,0,0,1,432.58,391.43Zm-6.81-1h6.31v-2.57h-6.31Z" style="fill:#a6a6a6"></path><path d="M432.58,361.67h-7.31a.5.5,0,0,1-.5-.5V357.6a.5.5,0,0,1,.5-.5h7.31a.5.5,0,0,1,.5.5v3.57A.5.5,0,0,1,432.58,361.67Zm-6.81-1h6.31V358.1h-6.31Z" style="fill:#a6a6a6"></path><path d="M440.06,397.21h-7.31a.5.5,0,0,1-.5-.5V353.18a.5.5,0,0,1,.5-.5h7.31a.5.5,0,0,1,.5.5v43.53A.5.5,0,0,1,440.06,397.21Zm-6.81-1h6.31V353.68h-6.31Z" style="fill:#a6a6a6"></path><path d="M440.06,391.43h-7.31a.5.5,0,0,1-.5-.5v-3.57a.5.5,0,0,1,.5-.5h7.31a.5.5,0,0,1,.5.5v3.57A.5.5,0,0,1,440.06,391.43Zm-6.81-1h6.31v-2.57h-6.31Z" style="fill:#a6a6a6"></path><path d="M440.06,361.67h-7.31a.5.5,0,0,1-.5-.5V357.6a.5.5,0,0,1,.5-.5h7.31a.5.5,0,0,1,.5.5v3.57A.5.5,0,0,1,440.06,361.67Zm-6.81-1h6.31V358.1h-6.31Z" style="fill:#a6a6a6"></path><path d="M447.55,397.21h-7.32a.5.5,0,0,1-.5-.5V353.18a.5.5,0,0,1,.5-.5h7.32a.5.5,0,0,1,.5.5v43.53A.5.5,0,0,1,447.55,397.21Zm-6.82-1h6.32V353.68h-6.32Z" style="fill:#a6a6a6"></path><path d="M459.73,397.21H447.48a.5.5,0,0,1-.5-.5V353.18a.5.5,0,0,1,.5-.5h12.25a.5.5,0,0,1,.5.5v43.53A.5.5,0,0,1,459.73,397.21Zm-11.75-1h11.25V353.68H448Z" style="fill:#a6a6a6"></path><path d="M447.55,391.43h-7.32a.5.5,0,0,1-.5-.5v-3.57a.5.5,0,0,1,.5-.5h7.32a.5.5,0,0,1,.5.5v3.57A.5.5,0,0,1,447.55,391.43Zm-6.82-1h6.32v-2.57h-6.32Z" style="fill:#a6a6a6"></path><path d="M447.55,361.67h-7.32a.5.5,0,0,1-.5-.5V357.6a.5.5,0,0,1,.5-.5h7.32a.5.5,0,0,1,.5.5v3.57A.5.5,0,0,1,447.55,361.67Zm-6.82-1h6.32V358.1h-6.32Z" style="fill:#a6a6a6"></path><path d="M328.82,397.21h-7.31a.5.5,0,0,1-.5-.5V353.18a.5.5,0,0,1,.5-.5h7.31a.5.5,0,0,1,.5.5v43.53A.5.5,0,0,1,328.82,397.21Zm-6.81-1h6.31V353.68H322Z" style="fill:#a6a6a6"></path><path d="M328.82,391.43h-7.31a.5.5,0,0,1-.5-.5v-3.57a.5.5,0,0,1,.5-.5h7.31a.5.5,0,0,1,.5.5v3.57A.5.5,0,0,1,328.82,391.43Zm-6.81-1h6.31v-2.57H322Z" style="fill:#a6a6a6"></path><path d="M328.82,361.67h-7.31a.5.5,0,0,1-.5-.5V357.6a.5.5,0,0,1,.5-.5h7.31a.5.5,0,0,1,.5.5v3.57A.5.5,0,0,1,328.82,361.67Zm-6.81-1h6.31V358.1H322Z" style="fill:#a6a6a6"></path><path d="M336.3,397.21H329a.5.5,0,0,1-.5-.5V353.18a.5.5,0,0,1,.5-.5h7.31a.5.5,0,0,1,.5.5v43.53A.5.5,0,0,1,336.3,397.21Zm-6.81-1h6.31V353.68h-6.31Z" style="fill:#a6a6a6"></path><path d="M336.3,391.43H329a.5.5,0,0,1-.5-.5v-3.57a.5.5,0,0,1,.5-.5h7.31a.5.5,0,0,1,.5.5v3.57A.5.5,0,0,1,336.3,391.43Zm-6.81-1h6.31v-2.57h-6.31Z" style="fill:#a6a6a6"></path><path d="M336.3,361.67H329a.5.5,0,0,1-.5-.5V357.6a.5.5,0,0,1,.5-.5h7.31a.5.5,0,0,1,.5.5v3.57A.5.5,0,0,1,336.3,361.67Zm-6.81-1h6.31V358.1h-6.31Z" style="fill:#a6a6a6"></path><path d="M343.79,397.21h-7.32a.5.5,0,0,1-.5-.5V353.18a.5.5,0,0,1,.5-.5h7.32a.5.5,0,0,1,.5.5v43.53A.5.5,0,0,1,343.79,397.21Zm-6.82-1h6.32V353.68H337Z" style="fill:#a6a6a6"></path><path d="M343.79,391.43h-7.32a.5.5,0,0,1-.5-.5v-3.57a.5.5,0,0,1,.5-.5h7.32a.5.5,0,0,1,.5.5v3.57A.5.5,0,0,1,343.79,391.43Zm-6.82-1h6.32v-2.57H337Z" style="fill:#a6a6a6"></path><path d="M343.79,361.67h-7.32a.5.5,0,0,1-.5-.5V357.6a.5.5,0,0,1,.5-.5h7.32a.5.5,0,0,1,.5.5v3.57A.5.5,0,0,1,343.79,361.67Zm-6.82-1h6.32V358.1H337Z" style="fill:#a6a6a6"></path><path d="M351.27,397.21H344a.5.5,0,0,1-.5-.5V353.18a.5.5,0,0,1,.5-.5h7.31a.5.5,0,0,1,.5.5v43.53A.5.5,0,0,1,351.27,397.21Zm-6.81-1h6.31V353.68h-6.31Z" style="fill:#a6a6a6"></path><path d="M363.45,397.21H351.2a.5.5,0,0,1-.5-.5V353.18a.5.5,0,0,1,.5-.5h12.25a.5.5,0,0,1,.5.5v43.53A.5.5,0,0,1,363.45,397.21Zm-11.75-1H363V353.68H351.7Z" style="fill:#a6a6a6"></path><path d="M351.27,391.43H344a.5.5,0,0,1-.5-.5v-3.57a.5.5,0,0,1,.5-.5h7.31a.5.5,0,0,1,.5.5v3.57A.5.5,0,0,1,351.27,391.43Zm-6.81-1h6.31v-2.57h-6.31Z" style="fill:#a6a6a6"></path><path d="M351.27,361.67H344a.5.5,0,0,1-.5-.5V357.6a.5.5,0,0,1,.5-.5h7.31a.5.5,0,0,1,.5.5v3.57A.5.5,0,0,1,351.27,361.67Zm-6.81-1h6.31V358.1h-6.31Z" style="fill:#a6a6a6"></path><path d="M349.52,345.33h-7.31a.5.5,0,0,1-.5-.5V301.3a.5.5,0,0,1,.5-.5h7.31a.5.5,0,0,1,.5.5v43.53A.5.5,0,0,1,349.52,345.33Zm-6.81-1H349V301.8h-6.31Z" style="fill:#a6a6a6"></path><path d="M349.52,339.55h-7.31a.5.5,0,0,1-.5-.5v-3.57a.5.5,0,0,1,.5-.5h7.31a.5.5,0,0,1,.5.5v3.57A.5.5,0,0,1,349.52,339.55Zm-6.81-1H349V336h-6.31Z" style="fill:#a6a6a6"></path><path d="M349.52,309.79h-7.31a.5.5,0,0,1-.5-.5v-3.57a.5.5,0,0,1,.5-.5h7.31a.5.5,0,0,1,.5.5v3.57A.5.5,0,0,1,349.52,309.79Zm-6.81-1H349v-2.57h-6.31Z" style="fill:#a6a6a6"></path><path d="M342.31,345.33H335a.5.5,0,0,1-.5-.5V301.3a.5.5,0,0,1,.5-.5h7.32a.5.5,0,0,1,.5.5v43.53A.5.5,0,0,1,342.31,345.33Zm-6.82-1h6.32V301.8h-6.32Z" style="fill:#a6a6a6"></path><path d="M342.31,339.55H335a.5.5,0,0,1-.5-.5v-3.57a.51.51,0,0,1,.5-.5h7.32a.51.51,0,0,1,.5.5v3.57A.5.5,0,0,1,342.31,339.55Zm-6.82-1h6.32V336h-6.32Z" style="fill:#a6a6a6"></path><path d="M342.31,309.79H335a.5.5,0,0,1-.5-.5v-3.57a.5.5,0,0,1,.5-.5h7.32a.5.5,0,0,1,.5.5v3.57A.5.5,0,0,1,342.31,309.79Zm-6.82-1h6.32v-2.57h-6.32Z" style="fill:#a6a6a6"></path><path d="M335.09,345.33h-7.31a.5.5,0,0,1-.5-.5V301.3a.5.5,0,0,1,.5-.5h7.31a.5.5,0,0,1,.5.5v43.53A.5.5,0,0,1,335.09,345.33Zm-6.81-1h6.31V301.8h-6.31Z" style="fill:#a6a6a6"></path><path d="M335.09,339.55h-7.31a.5.5,0,0,1-.5-.5v-3.57a.5.5,0,0,1,.5-.5h7.31a.5.5,0,0,1,.5.5v3.57A.5.5,0,0,1,335.09,339.55Zm-6.81-1h6.31V336h-6.31Z" style="fill:#a6a6a6"></path><path d="M335.09,309.79h-7.31a.5.5,0,0,1-.5-.5v-3.57a.5.5,0,0,1,.5-.5h7.31a.5.5,0,0,1,.5.5v3.57A.5.5,0,0,1,335.09,309.79Zm-6.81-1h6.31v-2.57h-6.31Z" style="fill:#a6a6a6"></path><path d="M327.88,345.33h-7.31a.5.5,0,0,1-.5-.5V301.3a.5.5,0,0,1,.5-.5h7.31a.5.5,0,0,1,.5.5v43.53A.5.5,0,0,1,327.88,345.33Zm-6.81-1h6.31V301.8h-6.31Z" style="fill:#a6a6a6"></path><path d="M327.88,339.55h-7.31a.5.5,0,0,1-.5-.5v-3.57a.5.5,0,0,1,.5-.5h7.31a.5.5,0,0,1,.5.5v3.57A.5.5,0,0,1,327.88,339.55Zm-6.81-1h6.31V336h-6.31Z" style="fill:#a6a6a6"></path><path d="M327.88,309.79h-7.31a.5.5,0,0,1-.5-.5v-3.57a.5.5,0,0,1,.5-.5h7.31a.5.5,0,0,1,.5.5v3.57A.5.5,0,0,1,327.88,309.79Zm-6.81-1h6.31v-2.57h-6.31Z" style="fill:#a6a6a6"></path><path d="M357,345.33h-7.31a.5.5,0,0,1-.5-.5V301.3a.5.5,0,0,1,.5-.5H357a.5.5,0,0,1,.5.5v43.53A.5.5,0,0,1,357,345.33Zm-6.81-1h6.31V301.8h-6.31Z" style="fill:#a6a6a6"></path><path d="M357,339.55h-7.31a.5.5,0,0,1-.5-.5v-3.57a.5.5,0,0,1,.5-.5H357a.5.5,0,0,1,.5.5v3.57A.5.5,0,0,1,357,339.55Zm-6.81-1h6.31V336h-6.31Z" style="fill:#a6a6a6"></path><path d="M357,309.79h-7.31a.5.5,0,0,1-.5-.5v-3.57a.5.5,0,0,1,.5-.5H357a.5.5,0,0,1,.5.5v3.57A.5.5,0,0,1,357,309.79Zm-6.81-1h6.31v-2.57h-6.31Z" style="fill:#a6a6a6"></path><path d="M364.48,345.33h-7.31a.5.5,0,0,1-.5-.5V301.3a.5.5,0,0,1,.5-.5h7.31a.5.5,0,0,1,.5.5v43.53A.5.5,0,0,1,364.48,345.33Zm-6.81-1H364V301.8h-6.31Z" style="fill:#a6a6a6"></path><path d="M364.48,339.55h-7.31a.5.5,0,0,1-.5-.5v-3.57a.51.51,0,0,1,.5-.5h7.31a.5.5,0,0,1,.5.5v3.57A.5.5,0,0,1,364.48,339.55Zm-6.81-1H364V336h-6.31Z" style="fill:#a6a6a6"></path><path d="M364.48,309.79h-7.31a.5.5,0,0,1-.5-.5v-3.57a.5.5,0,0,1,.5-.5h7.31a.5.5,0,0,1,.5.5v3.57A.5.5,0,0,1,364.48,309.79Zm-6.81-1H364v-2.57h-6.31Z" style="fill:#a6a6a6"></path><path d="M372,345.33h-7.32a.5.5,0,0,1-.5-.5V301.3a.5.5,0,0,1,.5-.5H372a.5.5,0,0,1,.5.5v43.53A.5.5,0,0,1,372,345.33Zm-6.82-1h6.32V301.8h-6.32Z" style="fill:#a6a6a6"></path><path d="M384.15,345.33H371.9a.5.5,0,0,1-.5-.5V301.3a.5.5,0,0,1,.5-.5h12.25a.5.5,0,0,1,.5.5v43.53A.5.5,0,0,1,384.15,345.33Zm-11.75-1h11.25V301.8H372.4Z" style="fill:#a6a6a6"></path><path d="M372,339.55h-7.32a.5.5,0,0,1-.5-.5v-3.57a.51.51,0,0,1,.5-.5H372a.51.51,0,0,1,.5.5v3.57A.5.5,0,0,1,372,339.55Zm-6.82-1h6.32V336h-6.32Z" style="fill:#a6a6a6"></path><path d="M372,309.79h-7.32a.5.5,0,0,1-.5-.5v-3.57a.5.5,0,0,1,.5-.5H372a.5.5,0,0,1,.5.5v3.57A.5.5,0,0,1,372,309.79Zm-6.82-1h6.32v-2.57h-6.32Z" style="fill:#a6a6a6"></path><path d="M401.52,345.33h-7.31a.5.5,0,0,1-.5-.5V301.3a.5.5,0,0,1,.5-.5h7.31a.5.5,0,0,1,.5.5v43.53A.5.5,0,0,1,401.52,345.33Zm-6.81-1H401V301.8h-6.31Z" style="fill:#a6a6a6"></path><path d="M401.52,339.55h-7.31a.5.5,0,0,1-.5-.5v-3.57a.5.5,0,0,1,.5-.5h7.31a.51.51,0,0,1,.5.5v3.57A.5.5,0,0,1,401.52,339.55Zm-6.81-1H401V336h-6.31Z" style="fill:#a6a6a6"></path><path d="M401.52,309.79h-7.31a.5.5,0,0,1-.5-.5v-3.57a.5.5,0,0,1,.5-.5h7.31a.5.5,0,0,1,.5.5v3.57A.5.5,0,0,1,401.52,309.79Zm-6.81-1H401v-2.57h-6.31Z" style="fill:#a6a6a6"></path><path d="M409,345.33h-7.31a.5.5,0,0,1-.5-.5V301.3a.5.5,0,0,1,.5-.5H409a.5.5,0,0,1,.5.5v43.53A.5.5,0,0,1,409,345.33Zm-6.81-1h6.31V301.8h-6.31Z" style="fill:#a6a6a6"></path><path d="M409,339.55h-7.31a.5.5,0,0,1-.5-.5v-3.57a.5.5,0,0,1,.5-.5H409a.5.5,0,0,1,.5.5v3.57A.5.5,0,0,1,409,339.55Zm-6.81-1h6.31V336h-6.31Z" style="fill:#a6a6a6"></path><path d="M409,309.79h-7.31a.5.5,0,0,1-.5-.5v-3.57a.5.5,0,0,1,.5-.5H409a.5.5,0,0,1,.5.5v3.57A.5.5,0,0,1,409,309.79Zm-6.81-1h6.31v-2.57h-6.31Z" style="fill:#a6a6a6"></path><path d="M434.3,345.25a.5.5,0,0,1-.46-.3L416.7,304.34a.5.5,0,0,1,0-.38.51.51,0,0,1,.27-.27l6.82-2.88a.5.5,0,0,1,.66.26l17.14,40.61a.46.46,0,0,1,0,.38.51.51,0,0,1-.27.27l-6.82,2.88A.48.48,0,0,1,434.3,345.25Zm-16.49-40.83,16.76,39.68,5.9-2.49-16.76-39.69Z" style="fill:#a6a6a6"></path><path d="M432,339.86a.41.41,0,0,1-.19,0,.49.49,0,0,1-.28-.27l-1.4-3.33a.5.5,0,0,1,.26-.65l6.83-2.88a.5.5,0,0,1,.38,0,.48.48,0,0,1,.27.27l1.41,3.33a.5.5,0,0,1-.27.65l-6.82,2.88A.43.43,0,0,1,432,339.86Zm-.76-3.56,1,2.41,5.9-2.5-1-2.41Z" style="fill:#a6a6a6"></path><path d="M420.3,312.1l-.18,0a.53.53,0,0,1-.28-.27l-1.4-3.33a.5.5,0,0,1,.26-.66l6.82-2.88a.53.53,0,0,1,.39,0,.51.51,0,0,1,.27.27l1.41,3.33a.51.51,0,0,1-.27.65l-6.82,2.88A.45.45,0,0,1,420.3,312.1Zm-.75-3.56,1,2.41,5.9-2.49-1-2.41Z" style="fill:#a6a6a6"></path><path d="M449.57,345.25H434.3a.5.5,0,0,1-.49-.4.51.51,0,0,1,.3-.56l6.82-2.88a.65.65,0,0,1,.19,0h0l15.32,0a.5.5,0,0,1,.49.4.49.49,0,0,1-.3.56l-6.87,2.86A.41.41,0,0,1,449.57,345.25Zm-12.8-1h12.7l4.47-1.86-12.72,0Z" style="fill:#a6a6a6"></path><path d="M456.44,342.39h0l-15.32,0a.51.51,0,0,1-.46-.3l-17.14-40.61a.49.49,0,0,1,.46-.69h14.34a.49.49,0,0,1,.45.29l18.13,40.63a.55.55,0,0,1,0,.48A.5.5,0,0,1,456.44,342.39Zm-15-1,14.21,0L438,301.77H424.73Z" style="fill:#a6a6a6"></path><path d="M416.21,345.33H408.9a.5.5,0,0,1-.5-.5V301.3a.5.5,0,0,1,.5-.5h7.31a.5.5,0,0,1,.5.5v43.53A.5.5,0,0,1,416.21,345.33Zm-6.81-1h6.31V301.8H409.4Z" style="fill:#a6a6a6"></path><path d="M416.21,339.55H408.9a.5.5,0,0,1-.5-.5v-3.57a.51.51,0,0,1,.5-.5h7.31a.5.5,0,0,1,.5.5v3.57A.5.5,0,0,1,416.21,339.55Zm-6.81-1h6.31V336H409.4Z" style="fill:#a6a6a6"></path><path d="M416.21,309.79H408.9a.5.5,0,0,1-.5-.5v-3.57a.5.5,0,0,1,.5-.5h7.31a.5.5,0,0,1,.5.5v3.57A.5.5,0,0,1,416.21,309.79Zm-6.81-1h6.31v-2.57H409.4Z" style="fill:#a6a6a6"></path><path d="M434.3,345.25H416.21a.5.5,0,0,1-.5-.5V301.3a.5.5,0,0,1,.5-.5H424a.5.5,0,0,1,.49.4.51.51,0,0,1-.3.56l-6.36,2.66,16.95,40.14a.49.49,0,0,1-.46.69Zm-17.59-1h16.84l-16.84-39.86Zm0-42.45v2.12a.5.5,0,0,1,.25-.23l4.52-1.89Z" style="fill:#a6a6a6"></path><path d="M401.52,447.13h-7.31a.5.5,0,0,1-.5-.5V403.09a.5.5,0,0,1,.5-.5h7.31a.51.51,0,0,1,.5.5v43.54A.5.5,0,0,1,401.52,447.13Zm-6.81-1H401V403.59h-6.31Z" style="fill:#a6a6a6"></path><path d="M401.52,441.35h-7.31a.5.5,0,0,1-.5-.5v-3.57a.5.5,0,0,1,.5-.5h7.31a.5.5,0,0,1,.5.5v3.57A.51.51,0,0,1,401.52,441.35Zm-6.81-1H401v-2.57h-6.31Z" style="fill:#a6a6a6"></path><path d="M401.52,411.59h-7.31a.5.5,0,0,1-.5-.5v-3.57a.5.5,0,0,1,.5-.5h7.31a.5.5,0,0,1,.5.5v3.57A.51.51,0,0,1,401.52,411.59Zm-6.81-1H401V408h-6.31Z" style="fill:#a6a6a6"></path><path d="M409,447.13h-7.31a.5.5,0,0,1-.5-.5V403.09a.5.5,0,0,1,.5-.5H409a.5.5,0,0,1,.5.5v43.54A.5.5,0,0,1,409,447.13Zm-6.81-1h6.31V403.59h-6.31Z" style="fill:#a6a6a6"></path><path d="M409,441.35h-7.31a.5.5,0,0,1-.5-.5v-3.57a.5.5,0,0,1,.5-.5H409a.5.5,0,0,1,.5.5v3.57A.5.5,0,0,1,409,441.35Zm-6.81-1h6.31v-2.57h-6.31Z" style="fill:#a6a6a6"></path><path d="M409,411.59h-7.31a.5.5,0,0,1-.5-.5v-3.57a.5.5,0,0,1,.5-.5H409a.5.5,0,0,1,.5.5v3.57A.5.5,0,0,1,409,411.59Zm-6.81-1h6.31V408h-6.31Z" style="fill:#a6a6a6"></path><path d="M434.3,447.05a.51.51,0,0,1-.46-.31l-17.14-40.6a.5.5,0,0,1,0-.38.53.53,0,0,1,.27-.28l6.82-2.88a.51.51,0,0,1,.66.27l17.14,40.6a.48.48,0,0,1,0,.39.51.51,0,0,1-.27.27L434.5,447A.48.48,0,0,1,434.3,447.05Zm-16.49-40.84,16.76,39.68,5.9-2.49-16.76-39.68Z" style="fill:#a6a6a6"></path><path d="M432,441.66a.58.58,0,0,1-.19,0,.53.53,0,0,1-.28-.27l-1.4-3.33a.51.51,0,0,1,.26-.66l6.83-2.88a.5.5,0,0,1,.38,0,.51.51,0,0,1,.27.27l1.41,3.33a.51.51,0,0,1-.27.66l-6.82,2.88A.65.65,0,0,1,432,441.66Zm-.76-3.57,1,2.41,5.9-2.49-1-2.41Z" style="fill:#a6a6a6"></path><path d="M420.3,413.9a.51.51,0,0,1-.46-.31l-1.4-3.33a.5.5,0,0,1,0-.38.49.49,0,0,1,.26-.27l6.82-2.88a.53.53,0,0,1,.39,0,.49.49,0,0,1,.27.26l1.41,3.34a.5.5,0,0,1,0,.38.51.51,0,0,1-.27.27l-6.82,2.88A.45.45,0,0,1,420.3,413.9Zm-.75-3.57,1,2.41,5.9-2.49-1-2.41Z" style="fill:#a6a6a6"></path><path d="M449.57,447.05H434.3a.5.5,0,0,1-.49-.4.51.51,0,0,1,.3-.56l6.82-2.88a.43.43,0,0,1,.19,0h0l15.32,0a.5.5,0,0,1,.19,1L449.76,447A.41.41,0,0,1,449.57,447.05Zm-12.8-1h12.7l4.47-1.86-12.72,0Z" style="fill:#a6a6a6"></path><path d="M456.44,444.19h0l-15.32,0a.5.5,0,0,1-.46-.31l-17.14-40.6a.49.49,0,0,1,0-.47.5.5,0,0,1,.42-.23h14.34a.5.5,0,0,1,.45.3l18.13,40.62a.54.54,0,0,1,0,.48A.5.5,0,0,1,456.44,444.19Zm-15-1,14.21,0L438,403.56H424.73Z" style="fill:#a6a6a6"></path><path d="M416.21,447.13H408.9a.5.5,0,0,1-.5-.5V403.09a.51.51,0,0,1,.5-.5h7.31a.5.5,0,0,1,.5.5v43.54A.5.5,0,0,1,416.21,447.13Zm-6.81-1h6.31V403.59H409.4Z" style="fill:#a6a6a6"></path><path d="M416.21,441.35H408.9a.51.51,0,0,1-.5-.5v-3.57a.5.5,0,0,1,.5-.5h7.31a.5.5,0,0,1,.5.5v3.57A.5.5,0,0,1,416.21,441.35Zm-6.81-1h6.31v-2.57H409.4Z" style="fill:#a6a6a6"></path><path d="M416.21,411.59H408.9a.51.51,0,0,1-.5-.5v-3.57a.5.5,0,0,1,.5-.5h7.31a.5.5,0,0,1,.5.5v3.57A.5.5,0,0,1,416.21,411.59Zm-6.81-1h6.31V408H409.4Z" style="fill:#a6a6a6"></path><path d="M434.3,447.05H416.21a.5.5,0,0,1-.5-.5V403.09a.51.51,0,0,1,.5-.5H424a.5.5,0,0,1,.49.41.52.52,0,0,1-.3.56l-6.36,2.65,16.95,40.14a.51.51,0,0,1,0,.48A.52.52,0,0,1,434.3,447.05Zm-17.59-1h16.84l-16.84-39.87Zm0-42.46v2.12a.61.61,0,0,1,.25-.23l4.52-1.89Z" style="fill:#a6a6a6"></path><path d="M336.27,447.13H329a.5.5,0,0,1-.5-.5V403.09a.5.5,0,0,1,.5-.5h7.31a.5.5,0,0,1,.5.5v43.54A.5.5,0,0,1,336.27,447.13Zm-6.81-1h6.31V403.59h-6.31Z" style="fill:#a6a6a6"></path><path d="M336.27,441.35H329a.5.5,0,0,1-.5-.5v-3.57a.5.5,0,0,1,.5-.5h7.31a.5.5,0,0,1,.5.5v3.57A.5.5,0,0,1,336.27,441.35Zm-6.81-1h6.31v-2.57h-6.31Z" style="fill:#a6a6a6"></path><path d="M336.27,411.59H329a.5.5,0,0,1-.5-.5v-3.57a.5.5,0,0,1,.5-.5h7.31a.5.5,0,0,1,.5.5v3.57A.5.5,0,0,1,336.27,411.59Zm-6.81-1h6.31V408h-6.31Z" style="fill:#a6a6a6"></path><path d="M328.82,447.13h-7.31a.5.5,0,0,1-.5-.5V403.09a.5.5,0,0,1,.5-.5h7.31a.5.5,0,0,1,.5.5v43.54A.5.5,0,0,1,328.82,447.13Zm-6.81-1h6.31V403.59H322Z" style="fill:#a6a6a6"></path><path d="M328.82,441.35h-7.31a.5.5,0,0,1-.5-.5v-3.57a.5.5,0,0,1,.5-.5h7.31a.5.5,0,0,1,.5.5v3.57A.5.5,0,0,1,328.82,441.35Zm-6.81-1h6.31v-2.57H322Z" style="fill:#a6a6a6"></path><path d="M328.82,411.59h-7.31a.5.5,0,0,1-.5-.5v-3.57a.5.5,0,0,1,.5-.5h7.31a.5.5,0,0,1,.5.5v3.57A.5.5,0,0,1,328.82,411.59Zm-6.81-1h6.31V408H322Z" style="fill:#a6a6a6"></path><path d="M343.75,447.13h-7.31a.5.5,0,0,1-.5-.5V403.09a.5.5,0,0,1,.5-.5h7.31a.5.5,0,0,1,.5.5v43.54A.5.5,0,0,1,343.75,447.13Zm-6.81-1h6.31V403.59h-6.31Z" style="fill:#a6a6a6"></path><path d="M343.75,441.35h-7.31a.5.5,0,0,1-.5-.5v-3.57a.5.5,0,0,1,.5-.5h7.31a.5.5,0,0,1,.5.5v3.57A.5.5,0,0,1,343.75,441.35Zm-6.81-1h6.31v-2.57h-6.31Z" style="fill:#a6a6a6"></path><path d="M343.75,411.59h-7.31a.5.5,0,0,1-.5-.5v-3.57a.5.5,0,0,1,.5-.5h7.31a.5.5,0,0,1,.5.5v3.57A.5.5,0,0,1,343.75,411.59Zm-6.81-1h6.31V408h-6.31Z" style="fill:#a6a6a6"></path><path d="M369.05,447.05a.51.51,0,0,1-.46-.31l-17.14-40.6a.5.5,0,0,1,0-.38.51.51,0,0,1,.26-.28l6.82-2.88a.51.51,0,0,1,.66.27l17.15,40.6a.53.53,0,0,1,0,.39.51.51,0,0,1-.27.27L369.25,447A.48.48,0,0,1,369.05,447.05Zm-16.49-40.84,16.76,39.68,5.9-2.49-16.76-39.68Z" style="fill:#a6a6a6"></path><path d="M366.78,441.66a.58.58,0,0,1-.19,0,.48.48,0,0,1-.27-.27L364.91,438a.5.5,0,0,1,.27-.66l6.82-2.88a.5.5,0,0,1,.38,0,.51.51,0,0,1,.27.27l1.41,3.33a.5.5,0,0,1-.27.66L367,441.62A.65.65,0,0,1,366.78,441.66Zm-.75-3.57,1,2.41,5.9-2.49-1-2.41Z" style="fill:#a6a6a6"></path><path d="M355.06,413.9a.5.5,0,0,1-.46-.31l-1.41-3.33a.5.5,0,0,1,0-.38.48.48,0,0,1,.27-.27l6.82-2.88a.5.5,0,0,1,.65.26l1.41,3.34a.5.5,0,0,1,0,.38.51.51,0,0,1-.27.27l-6.82,2.88A.43.43,0,0,1,355.06,413.9Zm-.76-3.57,1,2.41,5.9-2.49-1-2.41Z" style="fill:#a6a6a6"></path><path d="M384.32,447.05H369.05a.5.5,0,0,1-.19-1l6.82-2.88a.43.43,0,0,1,.19,0h0l15.31,0a.5.5,0,0,1,.19,1L384.51,447A.41.41,0,0,1,384.32,447.05Zm-12.8-1h12.7l4.48-1.86-12.73,0Z" style="fill:#a6a6a6"></path><path d="M391.19,444.19h0l-15.32,0a.5.5,0,0,1-.46-.31l-17.14-40.6a.49.49,0,0,1,0-.47.5.5,0,0,1,.42-.23h14.34a.5.5,0,0,1,.45.3l18.13,40.62a.51.51,0,0,1,0,.48A.5.5,0,0,1,391.19,444.19Zm-15-1,14.21,0-17.68-39.63H359.48Z" style="fill:#a6a6a6"></path><path d="M351,447.13h-7.32a.5.5,0,0,1-.5-.5V403.09a.51.51,0,0,1,.5-.5H351a.51.51,0,0,1,.5.5v43.54A.5.5,0,0,1,351,447.13Zm-6.82-1h6.32V403.59h-6.32Z" style="fill:#a6a6a6"></path><path d="M351,441.35h-7.32a.51.51,0,0,1-.5-.5v-3.57a.5.5,0,0,1,.5-.5H351a.5.5,0,0,1,.5.5v3.57A.51.51,0,0,1,351,441.35Zm-6.82-1h6.32v-2.57h-6.32Z" style="fill:#a6a6a6"></path><path d="M351,411.59h-7.32a.51.51,0,0,1-.5-.5v-3.57a.5.5,0,0,1,.5-.5H351a.5.5,0,0,1,.5.5v3.57A.51.51,0,0,1,351,411.59Zm-6.82-1h6.32V408h-6.32Z" style="fill:#a6a6a6"></path><path d="M369.05,447.05H351a.5.5,0,0,1-.5-.5V403.09a.5.5,0,0,1,.5-.5h7.76a.5.5,0,0,1,.19,1l-6.36,2.65,16.95,40.14a.51.51,0,0,1,0,.48A.52.52,0,0,1,369.05,447.05Zm-17.58-1H368.3l-16.83-39.87Zm0-42.46v2.12a.51.51,0,0,1,.25-.23l4.51-1.89Z" style="fill:#a6a6a6"></path><path d="M316.63,452.5H165.57a.5.5,0,0,1-.5-.5V293a.5.5,0,0,1,.5-.5H316.63a.5.5,0,0,1,.5.5V452A.5.5,0,0,1,316.63,452.5Zm-150.56-1H316.13v-158H166.07Z" style="fill:#a6a6a6"></path><path d="M313.1,447.72H170.66a.5.5,0,0,1-.5-.5V297a.5.5,0,0,1,.5-.5H313.1a.5.5,0,0,1,.5.5V447.22A.5.5,0,0,1,313.1,447.72Zm-141.94-1H312.6V297.48H171.16Z" style="fill:#a6a6a6"></path><path d="M313.1,350H170.66a.5.5,0,0,1-.5-.5V345a.5.5,0,0,1,.5-.5H313.1a.5.5,0,0,1,.5.5v4.5A.5.5,0,0,1,313.1,350Zm-141.94-1H312.6v-3.5H171.16Z" style="fill:#a6a6a6"></path><path d="M219.59,397.36h-3a.5.5,0,0,1-.5-.5V349.55a.5.5,0,0,1,.5-.5h3a.5.5,0,0,1,.5.5v47.31A.5.5,0,0,1,219.59,397.36Zm-2.52-1h2V350.05h-2Z" style="fill:#a6a6a6"></path><path d="M268,397.36h-3a.5.5,0,0,1-.5-.5V349.55a.5.5,0,0,1,.5-.5h3a.5.5,0,0,1,.5.5v47.31A.5.5,0,0,1,268,397.36Zm-2.53-1h2V350.05h-2Z" style="fill:#a6a6a6"></path><path d="M244,345.49h-3a.5.5,0,0,1-.5-.5V297.68a.5.5,0,0,1,.5-.5h3a.5.5,0,0,1,.5.5V345A.5.5,0,0,1,244,345.49Zm-2.53-1h2V298.18h-2Z" style="fill:#a6a6a6"></path><path d="M313.1,401.87H170.66a.5.5,0,0,1-.5-.5v-4.5a.5.5,0,0,1,.5-.5H313.1a.5.5,0,0,1,.5.5v4.5A.5.5,0,0,1,313.1,401.87Zm-141.94-1H312.6v-3.5H171.16Z" style="fill:#a6a6a6"></path><path d="M263.39,397.21h-7.31a.5.5,0,0,1-.5-.5V353.18a.5.5,0,0,1,.5-.5h7.31a.5.5,0,0,1,.5.5v43.53A.5.5,0,0,1,263.39,397.21Zm-6.81-1h6.31V353.68h-6.31Z" style="fill:#a6a6a6"></path><path d="M263.39,391.43h-7.31a.5.5,0,0,1-.5-.5v-3.57a.5.5,0,0,1,.5-.5h7.31a.5.5,0,0,1,.5.5v3.57A.5.5,0,0,1,263.39,391.43Zm-6.81-1h6.31v-2.57h-6.31Z" style="fill:#a6a6a6"></path><path d="M263.39,361.67h-7.31a.5.5,0,0,1-.5-.5V357.6a.5.5,0,0,1,.5-.5h7.31a.5.5,0,0,1,.5.5v3.57A.5.5,0,0,1,263.39,361.67Zm-6.81-1h6.31V358.1h-6.31Z" style="fill:#a6a6a6"></path><path d="M255.91,397.21h-7.32a.5.5,0,0,1-.5-.5V353.18a.5.5,0,0,1,.5-.5h7.32a.5.5,0,0,1,.5.5v43.53A.5.5,0,0,1,255.91,397.21Zm-6.82-1h6.32V353.68h-6.32Z" style="fill:#a6a6a6"></path><path d="M255.91,391.43h-7.32a.5.5,0,0,1-.5-.5v-3.57a.5.5,0,0,1,.5-.5h7.32a.5.5,0,0,1,.5.5v3.57A.5.5,0,0,1,255.91,391.43Zm-6.82-1h6.32v-2.57h-6.32Z" style="fill:#a6a6a6"></path><path d="M255.91,361.67h-7.32a.5.5,0,0,1-.5-.5V357.6a.5.5,0,0,1,.5-.5h7.32a.5.5,0,0,1,.5.5v3.57A.5.5,0,0,1,255.91,361.67Zm-6.82-1h6.32V358.1h-6.32Z" style="fill:#a6a6a6"></path><path d="M248.42,397.21h-7.31a.5.5,0,0,1-.5-.5V353.18a.5.5,0,0,1,.5-.5h7.31a.5.5,0,0,1,.5.5v43.53A.5.5,0,0,1,248.42,397.21Zm-6.81-1h6.31V353.68h-6.31Z" style="fill:#a6a6a6"></path><path d="M248.42,391.43h-7.31a.5.5,0,0,1-.5-.5v-3.57a.5.5,0,0,1,.5-.5h7.31a.5.5,0,0,1,.5.5v3.57A.5.5,0,0,1,248.42,391.43Zm-6.81-1h6.31v-2.57h-6.31Z" style="fill:#a6a6a6"></path><path d="M248.42,361.67h-7.31a.5.5,0,0,1-.5-.5V357.6a.5.5,0,0,1,.5-.5h7.31a.5.5,0,0,1,.5.5v3.57A.5.5,0,0,1,248.42,361.67Zm-6.81-1h6.31V358.1h-6.31Z" style="fill:#a6a6a6"></path><path d="M240.94,397.21h-7.31a.5.5,0,0,1-.5-.5V353.18a.5.5,0,0,1,.5-.5h7.31a.5.5,0,0,1,.5.5v43.53A.5.5,0,0,1,240.94,397.21Zm-6.81-1h6.31V353.68h-6.31Z" style="fill:#a6a6a6"></path><path d="M233.69,397.21H221.45a.5.5,0,0,1-.5-.5V353.18a.5.5,0,0,1,.5-.5h12.24a.5.5,0,0,1,.5.5v43.53A.5.5,0,0,1,233.69,397.21Zm-11.74-1h11.24V353.68H222Z" style="fill:#a6a6a6"></path><path d="M240.94,391.43h-7.31a.5.5,0,0,1-.5-.5v-3.57a.5.5,0,0,1,.5-.5h7.31a.5.5,0,0,1,.5.5v3.57A.5.5,0,0,1,240.94,391.43Zm-6.81-1h6.31v-2.57h-6.31Z" style="fill:#a6a6a6"></path><path d="M240.94,361.67h-7.31a.5.5,0,0,1-.5-.5V357.6a.5.5,0,0,1,.5-.5h7.31a.5.5,0,0,1,.5.5v3.57A.5.5,0,0,1,240.94,361.67Zm-6.81-1h6.31V358.1h-6.31Z" style="fill:#a6a6a6"></path><path d="M215.09,397.21h-7.31a.5.5,0,0,1-.5-.5V353.18a.5.5,0,0,1,.5-.5h7.31a.5.5,0,0,1,.5.5v43.53A.5.5,0,0,1,215.09,397.21Zm-6.81-1h6.31V353.68h-6.31Z" style="fill:#a6a6a6"></path><path d="M215.09,391.43h-7.31a.5.5,0,0,1-.5-.5v-3.57a.5.5,0,0,1,.5-.5h7.31a.5.5,0,0,1,.5.5v3.57A.5.5,0,0,1,215.09,391.43Zm-6.81-1h6.31v-2.57h-6.31Z" style="fill:#a6a6a6"></path><path d="M215.09,361.67h-7.31a.5.5,0,0,1-.5-.5V357.6a.5.5,0,0,1,.5-.5h7.31a.5.5,0,0,1,.5.5v3.57A.5.5,0,0,1,215.09,361.67Zm-6.81-1h6.31V358.1h-6.31Z" style="fill:#a6a6a6"></path><path d="M207.61,397.21H200.3a.5.5,0,0,1-.5-.5V353.18a.5.5,0,0,1,.5-.5h7.31a.5.5,0,0,1,.5.5v43.53A.5.5,0,0,1,207.61,397.21Zm-6.81-1h6.31V353.68H200.8Z" style="fill:#a6a6a6"></path><path d="M207.61,391.43H200.3a.5.5,0,0,1-.5-.5v-3.57a.5.5,0,0,1,.5-.5h7.31a.5.5,0,0,1,.5.5v3.57A.5.5,0,0,1,207.61,391.43Zm-6.81-1h6.31v-2.57H200.8Z" style="fill:#a6a6a6"></path><path d="M207.61,361.67H200.3a.5.5,0,0,1-.5-.5V357.6a.5.5,0,0,1,.5-.5h7.31a.5.5,0,0,1,.5.5v3.57A.5.5,0,0,1,207.61,361.67Zm-6.81-1h6.31V358.1H200.8Z" style="fill:#a6a6a6"></path><path d="M200.13,397.21h-7.31a.5.5,0,0,1-.5-.5V353.18a.5.5,0,0,1,.5-.5h7.31a.5.5,0,0,1,.5.5v43.53A.5.5,0,0,1,200.13,397.21Zm-6.81-1h6.31V353.68h-6.31Z" style="fill:#a6a6a6"></path><path d="M200.13,391.43h-7.31a.5.5,0,0,1-.5-.5v-3.57a.5.5,0,0,1,.5-.5h7.31a.5.5,0,0,1,.5.5v3.57A.5.5,0,0,1,200.13,391.43Zm-6.81-1h6.31v-2.57h-6.31Z" style="fill:#a6a6a6"></path><path d="M200.13,361.67h-7.31a.5.5,0,0,1-.5-.5V357.6a.5.5,0,0,1,.5-.5h7.31a.5.5,0,0,1,.5.5v3.57A.5.5,0,0,1,200.13,361.67Zm-6.81-1h6.31V358.1h-6.31Z" style="fill:#a6a6a6"></path><path d="M192.65,397.21h-7.32a.5.5,0,0,1-.5-.5V353.18a.5.5,0,0,1,.5-.5h7.32a.5.5,0,0,1,.5.5v43.53A.5.5,0,0,1,192.65,397.21Zm-6.82-1h6.32V353.68h-6.32Z" style="fill:#a6a6a6"></path><path d="M185.4,397.21H173.15a.5.5,0,0,1-.5-.5V353.18a.5.5,0,0,1,.5-.5H185.4a.5.5,0,0,1,.5.5v43.53A.5.5,0,0,1,185.4,397.21Zm-11.75-1H184.9V353.68H173.65Z" style="fill:#a6a6a6"></path><path d="M192.65,391.43h-7.32a.5.5,0,0,1-.5-.5v-3.57a.5.5,0,0,1,.5-.5h7.32a.5.5,0,0,1,.5.5v3.57A.5.5,0,0,1,192.65,391.43Zm-6.82-1h6.32v-2.57h-6.32Z" style="fill:#a6a6a6"></path><path d="M192.65,361.67h-7.32a.5.5,0,0,1-.5-.5V357.6a.5.5,0,0,1,.5-.5h7.32a.5.5,0,0,1,.5.5v3.57A.5.5,0,0,1,192.65,361.67Zm-6.82-1h6.32V358.1h-6.32Z" style="fill:#a6a6a6"></path><path d="M311.37,397.21h-7.31a.5.5,0,0,1-.5-.5V353.18a.5.5,0,0,1,.5-.5h7.31a.5.5,0,0,1,.5.5v43.53A.5.5,0,0,1,311.37,397.21Zm-6.81-1h6.31V353.68h-6.31Z" style="fill:#a6a6a6"></path><path d="M311.37,391.43h-7.31a.5.5,0,0,1-.5-.5v-3.57a.5.5,0,0,1,.5-.5h7.31a.5.5,0,0,1,.5.5v3.57A.5.5,0,0,1,311.37,391.43Zm-6.81-1h6.31v-2.57h-6.31Z" style="fill:#a6a6a6"></path><path d="M311.37,361.67h-7.31a.5.5,0,0,1-.5-.5V357.6a.5.5,0,0,1,.5-.5h7.31a.5.5,0,0,1,.5.5v3.57A.5.5,0,0,1,311.37,361.67Zm-6.81-1h6.31V358.1h-6.31Z" style="fill:#a6a6a6"></path><path d="M303.89,397.21h-7.31a.5.5,0,0,1-.5-.5V353.18a.5.5,0,0,1,.5-.5h7.31a.5.5,0,0,1,.5.5v43.53A.5.5,0,0,1,303.89,397.21Zm-6.81-1h6.31V353.68h-6.31Z" style="fill:#a6a6a6"></path><path d="M303.89,391.43h-7.31a.5.5,0,0,1-.5-.5v-3.57a.5.5,0,0,1,.5-.5h7.31a.5.5,0,0,1,.5.5v3.57A.5.5,0,0,1,303.89,391.43Zm-6.81-1h6.31v-2.57h-6.31Z" style="fill:#a6a6a6"></path><path d="M303.89,361.67h-7.31a.5.5,0,0,1-.5-.5V357.6a.5.5,0,0,1,.5-.5h7.31a.5.5,0,0,1,.5.5v3.57A.5.5,0,0,1,303.89,361.67Zm-6.81-1h6.31V358.1h-6.31Z" style="fill:#a6a6a6"></path><path d="M296.41,397.21h-7.32a.5.5,0,0,1-.5-.5V353.18a.5.5,0,0,1,.5-.5h7.32a.5.5,0,0,1,.5.5v43.53A.5.5,0,0,1,296.41,397.21Zm-6.82-1h6.32V353.68h-6.32Z" style="fill:#a6a6a6"></path><path d="M296.41,391.43h-7.32a.5.5,0,0,1-.5-.5v-3.57a.5.5,0,0,1,.5-.5h7.32a.5.5,0,0,1,.5.5v3.57A.5.5,0,0,1,296.41,391.43Zm-6.82-1h6.32v-2.57h-6.32Z" style="fill:#a6a6a6"></path><path d="M296.41,361.67h-7.32a.5.5,0,0,1-.5-.5V357.6a.5.5,0,0,1,.5-.5h7.32a.5.5,0,0,1,.5.5v3.57A.5.5,0,0,1,296.41,361.67Zm-6.82-1h6.32V358.1h-6.32Z" style="fill:#a6a6a6"></path><path d="M288.92,397.21h-7.31a.5.5,0,0,1-.5-.5V353.18a.5.5,0,0,1,.5-.5h7.31a.5.5,0,0,1,.5.5v43.53A.5.5,0,0,1,288.92,397.21Zm-6.81-1h6.31V353.68h-6.31Z" style="fill:#a6a6a6"></path><path d="M281.67,397.21H269.43a.5.5,0,0,1-.5-.5V353.18a.5.5,0,0,1,.5-.5h12.24a.5.5,0,0,1,.5.5v43.53A.5.5,0,0,1,281.67,397.21Zm-11.74-1h11.24V353.68H269.93Z" style="fill:#a6a6a6"></path><path d="M288.92,391.43h-7.31a.5.5,0,0,1-.5-.5v-3.57a.5.5,0,0,1,.5-.5h7.31a.5.5,0,0,1,.5.5v3.57A.5.5,0,0,1,288.92,391.43Zm-6.81-1h6.31v-2.57h-6.31Z" style="fill:#a6a6a6"></path><path d="M288.92,361.67h-7.31a.5.5,0,0,1-.5-.5V357.6a.5.5,0,0,1,.5-.5h7.31a.5.5,0,0,1,.5.5v3.57A.5.5,0,0,1,288.92,361.67Zm-6.81-1h6.31V358.1h-6.31Z" style="fill:#a6a6a6"></path><path d="M290.67,345.33h-7.31a.5.5,0,0,1-.5-.5V301.3a.5.5,0,0,1,.5-.5h7.31a.5.5,0,0,1,.5.5v43.53A.5.5,0,0,1,290.67,345.33Zm-6.81-1h6.31V301.8h-6.31Z" style="fill:#a6a6a6"></path><path d="M290.67,339.55h-7.31a.5.5,0,0,1-.5-.5v-3.57a.5.5,0,0,1,.5-.5h7.31a.5.5,0,0,1,.5.5v3.57A.5.5,0,0,1,290.67,339.55Zm-6.81-1h6.31V336h-6.31Z" style="fill:#a6a6a6"></path><path d="M290.67,309.79h-7.31a.5.5,0,0,1-.5-.5v-3.57a.5.5,0,0,1,.5-.5h7.31a.5.5,0,0,1,.5.5v3.57A.5.5,0,0,1,290.67,309.79Zm-6.81-1h6.31v-2.57h-6.31Z" style="fill:#a6a6a6"></path><path d="M297.89,345.33h-7.32a.5.5,0,0,1-.5-.5V301.3a.5.5,0,0,1,.5-.5h7.32a.5.5,0,0,1,.5.5v43.53A.5.5,0,0,1,297.89,345.33Zm-6.82-1h6.32V301.8h-6.32Z" style="fill:#a6a6a6"></path><path d="M297.89,339.55h-7.32a.5.5,0,0,1-.5-.5v-3.57a.51.51,0,0,1,.5-.5h7.32a.51.51,0,0,1,.5.5v3.57A.5.5,0,0,1,297.89,339.55Zm-6.82-1h6.32V336h-6.32Z" style="fill:#a6a6a6"></path><path d="M297.89,309.79h-7.32a.5.5,0,0,1-.5-.5v-3.57a.5.5,0,0,1,.5-.5h7.32a.5.5,0,0,1,.5.5v3.57A.5.5,0,0,1,297.89,309.79Zm-6.82-1h6.32v-2.57h-6.32Z" style="fill:#a6a6a6"></path><path d="M305.1,345.33h-7.31a.5.5,0,0,1-.5-.5V301.3a.5.5,0,0,1,.5-.5h7.31a.5.5,0,0,1,.5.5v43.53A.5.5,0,0,1,305.1,345.33Zm-6.81-1h6.31V301.8h-6.31Z" style="fill:#a6a6a6"></path><path d="M305.1,339.55h-7.31a.5.5,0,0,1-.5-.5v-3.57a.5.5,0,0,1,.5-.5h7.31a.51.51,0,0,1,.5.5v3.57A.5.5,0,0,1,305.1,339.55Zm-6.81-1h6.31V336h-6.31Z" style="fill:#a6a6a6"></path><path d="M305.1,309.79h-7.31a.5.5,0,0,1-.5-.5v-3.57a.5.5,0,0,1,.5-.5h7.31a.5.5,0,0,1,.5.5v3.57A.5.5,0,0,1,305.1,309.79Zm-6.81-1h6.31v-2.57h-6.31Z" style="fill:#a6a6a6"></path><path d="M312.31,345.33H305a.5.5,0,0,1-.5-.5V301.3a.5.5,0,0,1,.5-.5h7.31a.5.5,0,0,1,.5.5v43.53A.5.5,0,0,1,312.31,345.33Zm-6.81-1h6.31V301.8H305.5Z" style="fill:#a6a6a6"></path><path d="M312.31,339.55H305a.5.5,0,0,1-.5-.5v-3.57a.5.5,0,0,1,.5-.5h7.31a.5.5,0,0,1,.5.5v3.57A.5.5,0,0,1,312.31,339.55Zm-6.81-1h6.31V336H305.5Z" style="fill:#a6a6a6"></path><path d="M312.31,309.79H305a.5.5,0,0,1-.5-.5v-3.57a.5.5,0,0,1,.5-.5h7.31a.5.5,0,0,1,.5.5v3.57A.5.5,0,0,1,312.31,309.79Zm-6.81-1h6.31v-2.57H305.5Z" style="fill:#a6a6a6"></path><path d="M283.19,345.33h-7.31a.5.5,0,0,1-.5-.5V301.3a.5.5,0,0,1,.5-.5h7.31a.5.5,0,0,1,.5.5v43.53A.5.5,0,0,1,283.19,345.33Zm-6.81-1h6.31V301.8h-6.31Z" style="fill:#a6a6a6"></path><path d="M283.19,339.55h-7.31a.5.5,0,0,1-.5-.5v-3.57a.5.5,0,0,1,.5-.5h7.31a.5.5,0,0,1,.5.5v3.57A.5.5,0,0,1,283.19,339.55Zm-6.81-1h6.31V336h-6.31Z" style="fill:#a6a6a6"></path><path d="M283.19,309.79h-7.31a.5.5,0,0,1-.5-.5v-3.57a.5.5,0,0,1,.5-.5h7.31a.5.5,0,0,1,.5.5v3.57A.5.5,0,0,1,283.19,309.79Zm-6.81-1h6.31v-2.57h-6.31Z" style="fill:#a6a6a6"></path><path d="M275.71,345.33h-7.32a.5.5,0,0,1-.5-.5V301.3a.5.5,0,0,1,.5-.5h7.32a.5.5,0,0,1,.5.5v43.53A.5.5,0,0,1,275.71,345.33Zm-6.82-1h6.32V301.8h-6.32Z" style="fill:#a6a6a6"></path><path d="M275.71,339.55h-7.32a.5.5,0,0,1-.5-.5v-3.57a.51.51,0,0,1,.5-.5h7.32a.51.51,0,0,1,.5.5v3.57A.5.5,0,0,1,275.71,339.55Zm-6.82-1h6.32V336h-6.32Z" style="fill:#a6a6a6"></path><path d="M275.71,309.79h-7.32a.5.5,0,0,1-.5-.5v-3.57a.5.5,0,0,1,.5-.5h7.32a.5.5,0,0,1,.5.5v3.57A.5.5,0,0,1,275.71,309.79Zm-6.82-1h6.32v-2.57h-6.32Z" style="fill:#a6a6a6"></path><path d="M268.22,345.33h-7.31a.5.5,0,0,1-.5-.5V301.3a.5.5,0,0,1,.5-.5h7.31a.5.5,0,0,1,.5.5v43.53A.5.5,0,0,1,268.22,345.33Zm-6.81-1h6.31V301.8h-6.31Z" style="fill:#a6a6a6"></path><path d="M261,345.33H248.73a.5.5,0,0,1-.5-.5V301.3a.5.5,0,0,1,.5-.5H261a.5.5,0,0,1,.5.5v43.53A.5.5,0,0,1,261,345.33Zm-11.75-1h11.25V301.8H249.23Z" style="fill:#a6a6a6"></path><path d="M268.22,339.55h-7.31a.5.5,0,0,1-.5-.5v-3.57a.51.51,0,0,1,.5-.5h7.31a.5.5,0,0,1,.5.5v3.57A.5.5,0,0,1,268.22,339.55Zm-6.81-1h6.31V336h-6.31Z" style="fill:#a6a6a6"></path><path d="M268.22,309.79h-7.31a.5.5,0,0,1-.5-.5v-3.57a.5.5,0,0,1,.5-.5h7.31a.5.5,0,0,1,.5.5v3.57A.5.5,0,0,1,268.22,309.79Zm-6.81-1h6.31v-2.57h-6.31Z" style="fill:#a6a6a6"></path><path d="M238.67,345.33h-7.31a.5.5,0,0,1-.5-.5V301.3a.5.5,0,0,1,.5-.5h7.31a.5.5,0,0,1,.5.5v43.53A.5.5,0,0,1,238.67,345.33Zm-6.81-1h6.31V301.8h-6.31Z" style="fill:#a6a6a6"></path><path d="M238.67,339.55h-7.31a.5.5,0,0,1-.5-.5v-3.57a.5.5,0,0,1,.5-.5h7.31a.5.5,0,0,1,.5.5v3.57A.5.5,0,0,1,238.67,339.55Zm-6.81-1h6.31V336h-6.31Z" style="fill:#a6a6a6"></path><path d="M238.67,309.79h-7.31a.5.5,0,0,1-.5-.5v-3.57a.5.5,0,0,1,.5-.5h7.31a.5.5,0,0,1,.5.5v3.57A.5.5,0,0,1,238.67,309.79Zm-6.81-1h6.31v-2.57h-6.31Z" style="fill:#a6a6a6"></path><path d="M231.19,345.33h-7.31a.5.5,0,0,1-.5-.5V301.3a.5.5,0,0,1,.5-.5h7.31a.5.5,0,0,1,.5.5v43.53A.5.5,0,0,1,231.19,345.33Zm-6.81-1h6.31V301.8h-6.31Z" style="fill:#a6a6a6"></path><path d="M231.19,339.55h-7.31a.5.5,0,0,1-.5-.5v-3.57a.5.5,0,0,1,.5-.5h7.31a.5.5,0,0,1,.5.5v3.57A.5.5,0,0,1,231.19,339.55Zm-6.81-1h6.31V336h-6.31Z" style="fill:#a6a6a6"></path><path d="M231.19,309.79h-7.31a.5.5,0,0,1-.5-.5v-3.57a.5.5,0,0,1,.5-.5h7.31a.5.5,0,0,1,.5.5v3.57A.5.5,0,0,1,231.19,309.79Zm-6.81-1h6.31v-2.57h-6.31Z" style="fill:#a6a6a6"></path><path d="M198.58,345.25a.45.45,0,0,1-.2,0l-6.82-2.88a.49.49,0,0,1-.26-.65l17.14-40.61a.49.49,0,0,1,.27-.26.53.53,0,0,1,.39,0l6.82,2.88a.49.49,0,0,1,.26.65L199,345a.5.5,0,0,1-.28.27Zm-6.17-3.64,5.9,2.49,16.76-39.68-5.9-2.5Z" style="fill:#a6a6a6"></path><path d="M200.85,339.86a.43.43,0,0,1-.19,0l-6.82-2.88a.5.5,0,0,1-.27-.65L195,333a.48.48,0,0,1,.27-.27.5.5,0,0,1,.38,0l6.82,2.88a.49.49,0,0,1,.27.65l-1.41,3.33a.48.48,0,0,1-.27.27A.41.41,0,0,1,200.85,339.86Zm-6.16-3.65,5.9,2.5,1-2.41-5.89-2.5Z" style="fill:#a6a6a6"></path><path d="M212.57,312.1a.43.43,0,0,1-.19,0l-6.82-2.88a.5.5,0,0,1-.27-.65l1.41-3.33a.51.51,0,0,1,.27-.27.5.5,0,0,1,.38,0l6.82,2.88a.5.5,0,0,1,.27.66L213,311.8a.51.51,0,0,1-.27.27A.58.58,0,0,1,212.57,312.1Zm-6.16-3.64,5.9,2.49,1-2.41-5.89-2.49Z" style="fill:#a6a6a6"></path><path d="M198.58,345.25H183.31a.41.41,0,0,1-.19,0l-6.87-2.86a.49.49,0,0,1-.3-.56.5.5,0,0,1,.49-.4l15.32,0h0a.65.65,0,0,1,.19,0l6.82,2.88a.5.5,0,0,1-.19,1Zm-15.17-1h12.7l-4.46-1.88-12.72,0Z" style="fill:#a6a6a6"></path><path d="M176.44,342.39a.5.5,0,0,1-.42-.22.51.51,0,0,1,0-.48l18.13-40.63a.49.49,0,0,1,.45-.29H208.9a.49.49,0,0,1,.46.69l-17.14,40.61a.51.51,0,0,1-.46.3l-15.32,0Zm18.45-40.62-17.68,39.62,14.21,0,16.73-39.6Z" style="fill:#a6a6a6"></path><path d="M224,345.33h-7.32a.5.5,0,0,1-.5-.5V301.3a.5.5,0,0,1,.5-.5H224a.5.5,0,0,1,.5.5v43.53A.5.5,0,0,1,224,345.33Zm-6.82-1h6.32V301.8h-6.32Z" style="fill:#a6a6a6"></path><path d="M224,339.55h-7.32a.5.5,0,0,1-.5-.5v-3.57a.51.51,0,0,1,.5-.5H224a.51.51,0,0,1,.5.5v3.57A.5.5,0,0,1,224,339.55Zm-6.82-1h6.32V336h-6.32Z" style="fill:#a6a6a6"></path><path d="M224,309.79h-7.32a.5.5,0,0,1-.5-.5v-3.57a.5.5,0,0,1,.5-.5H224a.5.5,0,0,1,.5.5v3.57A.5.5,0,0,1,224,309.79Zm-6.82-1h6.32v-2.57h-6.32Z" style="fill:#a6a6a6"></path><path d="M216.66,345.25H198.58a.49.49,0,0,1-.46-.69l16.95-40.14-6.36-2.66a.5.5,0,0,1,.19-1h7.76a.5.5,0,0,1,.5.5v43.45A.5.5,0,0,1,216.66,345.25Zm-17.33-1h16.83V304.39Zm12.06-42.45,4.52,1.89a.43.43,0,0,1,.25.23V301.8Z" style="fill:#a6a6a6"></path><path d="M238.67,447.13h-7.31a.5.5,0,0,1-.5-.5V403.09a.5.5,0,0,1,.5-.5h7.31a.5.5,0,0,1,.5.5v43.54A.5.5,0,0,1,238.67,447.13Zm-6.81-1h6.31V403.59h-6.31Z" style="fill:#a6a6a6"></path><path d="M238.67,441.35h-7.31a.5.5,0,0,1-.5-.5v-3.57a.5.5,0,0,1,.5-.5h7.31a.5.5,0,0,1,.5.5v3.57A.5.5,0,0,1,238.67,441.35Zm-6.81-1h6.31v-2.57h-6.31Z" style="fill:#a6a6a6"></path><path d="M238.67,411.59h-7.31a.5.5,0,0,1-.5-.5v-3.57a.5.5,0,0,1,.5-.5h7.31a.5.5,0,0,1,.5.5v3.57A.5.5,0,0,1,238.67,411.59Zm-6.81-1h6.31V408h-6.31Z" style="fill:#a6a6a6"></path><path d="M231.19,447.13h-7.31a.5.5,0,0,1-.5-.5V403.09a.5.5,0,0,1,.5-.5h7.31a.5.5,0,0,1,.5.5v43.54A.5.5,0,0,1,231.19,447.13Zm-6.81-1h6.31V403.59h-6.31Z" style="fill:#a6a6a6"></path><path d="M231.19,441.35h-7.31a.5.5,0,0,1-.5-.5v-3.57a.5.5,0,0,1,.5-.5h7.31a.5.5,0,0,1,.5.5v3.57A.5.5,0,0,1,231.19,441.35Zm-6.81-1h6.31v-2.57h-6.31Z" style="fill:#a6a6a6"></path><path d="M231.19,411.59h-7.31a.5.5,0,0,1-.5-.5v-3.57a.5.5,0,0,1,.5-.5h7.31a.5.5,0,0,1,.5.5v3.57A.5.5,0,0,1,231.19,411.59Zm-6.81-1h6.31V408h-6.31Z" style="fill:#a6a6a6"></path><path d="M198.58,447.05a.45.45,0,0,1-.2,0l-6.82-2.88a.5.5,0,0,1-.26-.66l17.14-40.6a.51.51,0,0,1,.27-.27.53.53,0,0,1,.39,0l6.82,2.88a.5.5,0,0,1,.26.66L199,446.74a.47.47,0,0,1-.28.27A.39.39,0,0,1,198.58,447.05Zm-6.17-3.65,5.9,2.49,16.76-39.68-5.9-2.49Z" style="fill:#a6a6a6"></path><path d="M200.85,441.66a.65.65,0,0,1-.19,0l-6.82-2.88a.51.51,0,0,1-.27-.66l1.41-3.33a.51.51,0,0,1,.27-.27.5.5,0,0,1,.38,0l6.82,2.88a.5.5,0,0,1,.27.66l-1.41,3.33a.51.51,0,0,1-.27.27A.58.58,0,0,1,200.85,441.66ZM194.69,438l5.9,2.49,1-2.41-5.89-2.49Z" style="fill:#a6a6a6"></path><path d="M212.57,413.9a.43.43,0,0,1-.19,0L205.56,411a.51.51,0,0,1-.27-.27.5.5,0,0,1,0-.38L206.7,407a.49.49,0,0,1,.27-.26.5.5,0,0,1,.38,0l6.82,2.88a.48.48,0,0,1,.27.27.5.5,0,0,1,0,.38L213,413.59A.5.5,0,0,1,212.57,413.9Zm-6.16-3.65,5.9,2.49,1-2.41-5.89-2.49Z" style="fill:#a6a6a6"></path><path d="M198.58,447.05H183.31a.41.41,0,0,1-.19,0l-6.87-2.86a.5.5,0,0,1,.19-1l15.32,0h0a.43.43,0,0,1,.19,0l6.82,2.88a.5.5,0,0,1-.19,1Zm-15.17-1h12.7l-4.46-1.88-12.72,0Z" style="fill:#a6a6a6"></path><path d="M176.44,444.19A.5.5,0,0,1,176,444a.51.51,0,0,1,0-.48l18.13-40.62a.5.5,0,0,1,.45-.3H208.9a.5.5,0,0,1,.42.23.49.49,0,0,1,0,.47l-17.14,40.6a.5.5,0,0,1-.46.31l-15.32,0Zm18.45-40.63-17.68,39.63,14.21,0,16.73-39.61Z" style="fill:#a6a6a6"></path><path d="M224,447.13h-7.32a.5.5,0,0,1-.5-.5V403.09a.51.51,0,0,1,.5-.5H224a.51.51,0,0,1,.5.5v43.54A.5.5,0,0,1,224,447.13Zm-6.82-1h6.32V403.59h-6.32Z" style="fill:#a6a6a6"></path><path d="M224,441.35h-7.32a.51.51,0,0,1-.5-.5v-3.57a.5.5,0,0,1,.5-.5H224a.5.5,0,0,1,.5.5v3.57A.51.51,0,0,1,224,441.35Zm-6.82-1h6.32v-2.57h-6.32Z" style="fill:#a6a6a6"></path><path d="M224,411.59h-7.32a.51.51,0,0,1-.5-.5v-3.57a.5.5,0,0,1,.5-.5H224a.5.5,0,0,1,.5.5v3.57A.51.51,0,0,1,224,411.59Zm-6.82-1h6.32V408h-6.32Z" style="fill:#a6a6a6"></path><path d="M216.66,447.05H198.58a.52.52,0,0,1-.42-.22.51.51,0,0,1,0-.48l16.95-40.14-6.36-2.65a.5.5,0,0,1,.19-1h7.76a.5.5,0,0,1,.5.5v43.46A.5.5,0,0,1,216.66,447.05Zm-17.33-1h16.83V406.18Zm12.06-42.46,4.52,1.89a.51.51,0,0,1,.25.23v-2.12Z" style="fill:#a6a6a6"></path><path d="M303.92,447.13h-7.31a.5.5,0,0,1-.5-.5V403.09a.5.5,0,0,1,.5-.5h7.31a.5.5,0,0,1,.5.5v43.54A.5.5,0,0,1,303.92,447.13Zm-6.81-1h6.31V403.59h-6.31Z" style="fill:#a6a6a6"></path><path d="M303.92,441.35h-7.31a.5.5,0,0,1-.5-.5v-3.57a.5.5,0,0,1,.5-.5h7.31a.5.5,0,0,1,.5.5v3.57A.5.5,0,0,1,303.92,441.35Zm-6.81-1h6.31v-2.57h-6.31Z" style="fill:#a6a6a6"></path><path d="M303.92,411.59h-7.31a.5.5,0,0,1-.5-.5v-3.57a.5.5,0,0,1,.5-.5h7.31a.5.5,0,0,1,.5.5v3.57A.5.5,0,0,1,303.92,411.59Zm-6.81-1h6.31V408h-6.31Z" style="fill:#a6a6a6"></path><path d="M311.37,447.13h-7.31a.5.5,0,0,1-.5-.5V403.09a.5.5,0,0,1,.5-.5h7.31a.5.5,0,0,1,.5.5v43.54A.5.5,0,0,1,311.37,447.13Zm-6.81-1h6.31V403.59h-6.31Z" style="fill:#a6a6a6"></path><path d="M311.37,441.35h-7.31a.5.5,0,0,1-.5-.5v-3.57a.5.5,0,0,1,.5-.5h7.31a.5.5,0,0,1,.5.5v3.57A.5.5,0,0,1,311.37,441.35Zm-6.81-1h6.31v-2.57h-6.31Z" style="fill:#a6a6a6"></path><path d="M311.37,411.59h-7.31a.5.5,0,0,1-.5-.5v-3.57a.5.5,0,0,1,.5-.5h7.31a.5.5,0,0,1,.5.5v3.57A.5.5,0,0,1,311.37,411.59Zm-6.81-1h6.31V408h-6.31Z" style="fill:#a6a6a6"></path><path d="M296.44,447.13h-7.31a.5.5,0,0,1-.5-.5V403.09a.5.5,0,0,1,.5-.5h7.31a.5.5,0,0,1,.5.5v43.54A.5.5,0,0,1,296.44,447.13Zm-6.81-1h6.31V403.59h-6.31Z" style="fill:#a6a6a6"></path><path d="M296.44,441.35h-7.31a.5.5,0,0,1-.5-.5v-3.57a.5.5,0,0,1,.5-.5h7.31a.5.5,0,0,1,.5.5v3.57A.5.5,0,0,1,296.44,441.35Zm-6.81-1h6.31v-2.57h-6.31Z" style="fill:#a6a6a6"></path><path d="M296.44,411.59h-7.31a.5.5,0,0,1-.5-.5v-3.57a.5.5,0,0,1,.5-.5h7.31a.5.5,0,0,1,.5.5v3.57A.5.5,0,0,1,296.44,411.59Zm-6.81-1h6.31V408h-6.31Z" style="fill:#a6a6a6"></path><path d="M263.83,447.05a.45.45,0,0,1-.2,0l-6.82-2.88a.52.52,0,0,1-.27-.66l17.15-40.6a.51.51,0,0,1,.27-.27.5.5,0,0,1,.38,0l6.82,2.88a.5.5,0,0,1,.27.66l-17.14,40.6a.49.49,0,0,1-.28.27A.39.39,0,0,1,263.83,447.05Zm-6.17-3.65,5.9,2.49,16.76-39.68-5.9-2.49Z" style="fill:#a6a6a6"></path><path d="M266.1,441.66a.65.65,0,0,1-.19,0l-6.82-2.88a.47.47,0,0,1-.27-.28.5.5,0,0,1,0-.38l1.41-3.33a.51.51,0,0,1,.65-.27l6.82,2.88a.49.49,0,0,1,.27.28.5.5,0,0,1,0,.38l-1.41,3.33A.5.5,0,0,1,266.1,441.66ZM259.94,438l5.9,2.49,1-2.41L261,435.6Z" style="fill:#a6a6a6"></path><path d="M277.82,413.9a.43.43,0,0,1-.19,0L270.81,411a.51.51,0,0,1-.27-.27.5.5,0,0,1,0-.38L272,407a.5.5,0,0,1,.65-.26l6.82,2.88a.48.48,0,0,1,.27.27.5.5,0,0,1,0,.38l-1.41,3.33A.5.5,0,0,1,277.82,413.9Zm-6.16-3.65,5.9,2.49,1-2.41-5.9-2.49Z" style="fill:#a6a6a6"></path><path d="M263.83,447.05H248.56a.41.41,0,0,1-.19,0l-6.87-2.86a.5.5,0,0,1,.19-1l15.31,0h0a.43.43,0,0,1,.19,0l6.82,2.88a.5.5,0,0,1-.19,1Zm-15.17-1h12.7l-4.46-1.88-12.72,0Z" style="fill:#a6a6a6"></path><path d="M241.69,444.19a.5.5,0,0,1-.42-.23.51.51,0,0,1,0-.48l18.13-40.62a.5.5,0,0,1,.45-.3h14.34a.52.52,0,0,1,.42.23.49.49,0,0,1,0,.47l-17.14,40.6a.5.5,0,0,1-.46.31l-15.32,0Zm18.45-40.63-17.68,39.63,14.21,0,16.73-39.61Z" style="fill:#a6a6a6"></path><path d="M289.23,447.13h-7.32a.5.5,0,0,1-.5-.5V403.09a.51.51,0,0,1,.5-.5h7.32a.51.51,0,0,1,.5.5v43.54A.5.5,0,0,1,289.23,447.13Zm-6.82-1h6.32V403.59h-6.32Z" style="fill:#a6a6a6"></path><path d="M289.23,441.35h-7.32a.51.51,0,0,1-.5-.5v-3.57a.5.5,0,0,1,.5-.5h7.32a.5.5,0,0,1,.5.5v3.57A.51.51,0,0,1,289.23,441.35Zm-6.82-1h6.32v-2.57h-6.32Z" style="fill:#a6a6a6"></path><path d="M289.23,411.59h-7.32a.51.51,0,0,1-.5-.5v-3.57a.5.5,0,0,1,.5-.5h7.32a.5.5,0,0,1,.5.5v3.57A.51.51,0,0,1,289.23,411.59Zm-6.82-1h6.32V408h-6.32Z" style="fill:#a6a6a6"></path><path d="M281.91,447.05H263.83a.52.52,0,0,1-.42-.22.54.54,0,0,1-.05-.48l16.95-40.14L274,403.56a.5.5,0,0,1,.19-1h7.76a.5.5,0,0,1,.5.5v43.46A.5.5,0,0,1,281.91,447.05Zm-17.33-1h16.83V406.18Zm12.06-42.46,4.52,1.89a.51.51,0,0,1,.25.23v-2.12Z" style="fill:#a6a6a6"></path></g><g id="freepik--Seat--inject-56"><path d="M222.73,361.26h83.93a42.46,42.46,0,0,1,42.46,42.46v48.77a0,0,0,0,1,0,0H180.27a0,0,0,0,1,0,0V403.72A42.46,42.46,0,0,1,222.73,361.26Z" style="fill:#9e9e9e"></path><path d="M349.12,453H180.27a.51.51,0,0,1-.5-.5V403.72a43,43,0,0,1,43-43h83.93a43,43,0,0,1,43,43v48.77A.5.5,0,0,1,349.12,453Zm-168.35-1H348.62V403.72a42,42,0,0,0-42-42H222.73a42,42,0,0,0-42,42Z" style="fill:#263238"></path></g><g id="freepik--Character--inject-56"><path d="M277.82,214.64s15-13.3,31.78-3,20.94,25.87,21.92,37.69,15.28,13.31,16,25.13-15.28,15-11.34,26.36,11.58,13.31,8.38,23.16-12.32,5.17-8.62,14.29,12.07,12.32,10.59,21.43-7.88,9.86-7.14,15.52,5.91,4.44,5.66,2.46l-.24-2s6.65,2.71,1.72,11.58-14,8.38-17-.24-2-32.52-11.82-39.17-30.3-9.12-36.46-18.23,3-27.35,3-27.35,9.12-35.72,5.42-46.56-11.33-24.64-12.32-30.55A25,25,0,0,1,277.82,214.64Z" style="fill:#263238"></path><path d="M337.53,394.27l-.7,0c-3.46-.31-6.36-2.92-7.75-7-.94-2.74-1.47-6.85-2.09-11.62-1.31-10.18-2.95-22.85-9.54-27.3-3.93-2.65-9.49-4.6-15.37-6.67-8.59-3-17.46-6.12-21.23-11.69-6.15-9.11,2.27-26.53,2.9-27.8.39-1.54,9-35.84,5.42-46.23-1.68-4.93-4.14-10.38-6.51-15.64-2.84-6.28-5.28-11.71-5.83-15a25.32,25.32,0,0,1,.51-10.82l0-.13.11-.1c.15-.13,15.5-13.43,32.37-3,13.28,8.2,20.74,21,22.16,38.07.47,5.69,4.07,8.84,7.88,12.18s7.75,6.81,8.14,13c.36,5.82-3.11,9.55-6.46,13.15-3.54,3.81-6.88,7.4-4.9,13.08a38.27,38.27,0,0,0,5.29,9.78c2.87,4.13,5.13,7.39,3.08,13.69a11.82,11.82,0,0,1-6.61,7.44c-2.48,1.3-3.84,2-2,6.51a32.88,32.88,0,0,0,5.57,8.6c3.08,3.78,6,7.35,5.05,13.1a18.06,18.06,0,0,1-4.65,9.47c-1.64,2-2.82,3.37-2.49,5.91.39,3,2.05,3.82,3.35,3.66.79-.1,1.39-.58,1.33-1.07l-.36-2.82.79.32a6.62,6.62,0,0,1,3.47,3.78c.83,2.37.33,5.22-1.49,8.51C344.63,391.82,341.14,394.27,337.53,394.27ZM278.26,214.92a24.93,24.93,0,0,0-.44,10.23c.52,3.14,3.06,8.78,5.75,14.74,2.38,5.28,4.85,10.75,6.55,15.73,3.7,10.85-5,45.38-5.41,46.84l0,.1c-.09.18-8.91,18.08-3,26.85,3.58,5.29,12.3,8.35,20.73,11.31,5.94,2.09,11.56,4.06,15.6,6.78,7,4.71,8.64,17.62,10,28,.6,4.71,1.13,8.79,2,11.42,1.29,3.75,3.8,6.05,6.9,6.33,3.44.31,6.88-2,9.19-6.16,1.68-3,2.16-5.59,1.43-7.67a5.63,5.63,0,0,0-2.09-2.73l.12,1c.13,1.07-.81,2-2.19,2.19-1.9.24-4-1.06-4.47-4.52-.39-3,1-4.69,2.71-6.68a17,17,0,0,0,4.44-9c.86-5.31-1.79-8.56-4.85-12.31a34.48,34.48,0,0,1-5.72-8.85c-2.15-5.33-.11-6.41,2.48-7.78,2.1-1.11,4.72-2.5,6.13-6.85,1.9-5.83-.13-8.77-3-12.82a39.26,39.26,0,0,1-5.42-10c-2.17-6.25,1.53-10.23,5.11-14.09,3.21-3.45,6.53-7,6.2-12.41-.36-5.73-4-8.9-7.8-12.26s-7.71-6.77-8.22-12.85c-1.41-17-8.5-29.17-21.69-37.31C293.83,202.53,279.62,213.78,278.26,214.92Z" style="fill:#263238"></path><path d="M290.38,303.08s-6.4,18.23-7.14,24.14-.74,20.94.49,34-1,91.4-1,91.4H218.2s3.45-32.28,8.62-74.4,18.23-70,24.64-78.84,9.11-13.55,9.11-13.55Z" style="fill:#c7c7c7"></path><path d="M282.74,453.12H218.2a.48.48,0,0,1-.37-.17.52.52,0,0,1-.13-.39c0-.32,3.51-32.76,8.63-74.4,5.24-42.73,18.46-70.4,24.72-79.07s9.06-13.46,9.09-13.51a.5.5,0,0,1,.68-.18l29.81,17.25a.5.5,0,0,1,.22.6c-.06.18-6.39,18.24-7.12,24s-.72,21,.5,33.88-1,90.68-1,91.46A.49.49,0,0,1,282.74,453.12Zm-64-1h63.5c.18-6.65,2.14-78.51,1-90.85-1.22-13-1.24-28.11-.49-34.11.69-5.49,6.07-21.1,7-23.85l-29-16.8c-.82,1.36-3.62,5.87-8.89,13.17-6.2,8.59-19.32,36.08-24.54,78.6C222.57,416.94,219.24,447.66,218.76,452.12Z" style="fill:#263238"></path><path d="M263.93,294.9s6.71,15.26,20.11,22.57c2.12-7.17,5-15.3,5-15.3l-24.72-14.3Z" style="fill:#263238"></path><path d="M284.35,318.2l-.55-.29c-13.39-7.31-20.26-22.66-20.32-22.81l-.05-.11.42-8,25.78,14.91-.14.4c0,.08-2.88,8.2-5,15.27Zm-19.91-23.4c.62,1.34,7.14,15,19.3,21.93,1.81-6.05,4.09-12.68,4.67-14.33l-23.65-13.69Z" style="fill:#263238"></path><path d="M264.76,334.37c-12.7-3.49-19.27-16.34-21.12-20.56-6.21,14-13.32,35.91-16.82,64.41-5.17,42.12-8.62,74.4-8.62,74.4h64.54s2.22-78.34,1-91.4a237.64,237.64,0,0,1-.91-27.69A30.64,30.64,0,0,1,264.76,334.37Z" style="fill:#fff"></path><path d="M282.74,453.12H218.2a.48.48,0,0,1-.37-.17.52.52,0,0,1-.13-.39c0-.32,3.51-32.76,8.63-74.4,3.93-32,12.25-54.2,16.85-64.56a.51.51,0,0,1,.46-.29h0a.49.49,0,0,1,.46.3c1.7,3.88,8.23,16.83,20.79,20.27a29.77,29.77,0,0,0,17.77-.82.51.51,0,0,1,.46.07.52.52,0,0,1,.2.42,235.66,235.66,0,0,0,.91,27.62c1.22,12.94-1,90.68-1,91.46A.49.49,0,0,1,282.74,453.12Zm-64-1h63.5c.18-6.65,2.14-78.51,1-90.85a240.24,240.24,0,0,1-.93-27,30.65,30.65,0,0,1-17.67.62h0c-12-3.3-18.68-15-21-19.82-4.66,10.7-12.54,32.36-16.33,63.25C222.57,416.94,219.24,447.66,218.76,452.12Z" style="fill:#263238"></path><path d="M220.49,213.78s.86-15.33-2.27-27.54S204,134.85,204,132.3s8.23-8.24,9.65-10.23,1.42-6,2.56-9.08,3.4-7.95,7.09-10.51,2.28-5.11-2.55-3.4-9.37,8.23-9.65,9.37-2.28.56-3.41-1.71-8.52-25.55-9.94-26.69-2.39,0-2.19,1.3,3.15,15.74,3.15,16-.31.31-.92.31-5.78-19.9-6.9-21-2.74-.91-2.94-.1,4,20.1,4.16,21.22-.92,1.73-1.32,1.42-6.5-21.12-7.31-21.62-2.64-1-3,1.42,5.89,21.12,5.59,22-1.32,1-1.53.51-8-14.62-8.63-14.72-2.13-.21-1.42,2.13,6.5,18.58,6.5,18.58,4.06,17.76,5.89,20.61,2.84,4.36,2.84,4.36-.76,56.51.73,66.71a91,91,0,0,0,4.67,18.27S210,211.13,220.49,213.78Z" style="fill:#c7c7c7"></path><path d="M195.1,218a.65.65,0,0,1-.19,0,.53.53,0,0,1-.27-.28,91.79,91.79,0,0,1-4.71-18.38c-1.45-10-.78-62.71-.73-66.63-.28-.42-1.24-1.88-2.76-4.24-1.85-2.89-5.79-20-6-20.77S174.7,91.43,174,89.11a2.36,2.36,0,0,1,.17-2.32,1.85,1.85,0,0,1,1.82-.45c1.05.18,9,14.89,9,15a1,1,0,0,0,.19,0,.68.68,0,0,0,.39-.45c0-.46-1.11-4.28-2.1-7.64-2.2-7.48-3.74-12.89-3.5-14.31a2.56,2.56,0,0,1,1.33-2.09,2.74,2.74,0,0,1,2.47.32c.52.33,1.44,3,4.93,14.06,1.05,3.33,2.13,6.78,2.46,7.57a1,1,0,0,0,.28-.19.79.79,0,0,0,.21-.72c-.05-.25-.29-1.42-.64-3.09-3.11-14.79-3.64-17.86-3.52-18.34a1.41,1.41,0,0,1,1-1,2.89,2.89,0,0,1,2.73.84c.64.64,2,5,4.06,12.12,1.09,3.68,2.31,7.82,2.75,8.75h.12c-.16-.87-.84-4.29-1.45-7.34C196,86,195.2,82.1,195.1,81.43a2,2,0,0,1,.83-2.15,1.85,1.85,0,0,1,2.16.38C199,80.35,201,86,205,97.6c1.49,4.35,2.78,8.11,3.19,8.92.72,1.45,1.78,2,2.26,2a.21.21,0,0,0,.21-.19c.33-1.31,5-8,10-9.72,2.57-.9,4.54-.73,5.14.46s-.26,2.54-2.13,3.84c-3.7,2.56-5.92,7.52-6.91,10.26a25.46,25.46,0,0,0-1,4.09c-.38,2-.73,3.87-1.62,5.11a26.59,26.59,0,0,1-3.48,3.29c-2.43,2.08-6.08,5.22-6.08,6.65s4.83,19.31,8.72,33.55c2.24,8.2,4.35,16,5.46,20.27,3.1,12.14,2.29,27.53,2.28,27.69a.48.48,0,0,1-.2.37.52.52,0,0,1-.42.09c-10.21-2.58-24.92,3.62-25.07,3.69A.71.71,0,0,1,195.1,218ZM175.44,87.29a.73.73,0,0,0-.53.16c-.08.1-.25.42,0,1.37.7,2.3,6.43,18.4,6.49,18.56s4.08,17.77,5.84,20.51,2.84,4.35,2.84,4.35a.6.6,0,0,1,.08.29c0,.56-.74,56.58.72,66.62a92.39,92.39,0,0,0,4.47,17.69c2.63-1.07,15.09-5.77,24.63-3.68.11-2.94.44-16.15-2.28-26.8-1.1-4.31-3.22-12.05-5.45-20.24-5.13-18.8-8.76-32.23-8.76-33.82,0-1.75,2.66-4.17,6.42-7.41a26.38,26.38,0,0,0,3.32-3.11,13,13,0,0,0,1.46-4.72,27.62,27.62,0,0,1,1-4.24c1-2.85,3.35-8,7.28-10.75,1.58-1.09,2-2.09,1.81-2.56s-1.47-.83-3.92,0c-4.55,1.6-9.07,8-9.33,9a1.19,1.19,0,0,1-1.07.93c-.92.1-2.33-.65-3.27-2.53-.43-.87-1.67-4.48-3.24-9-2.14-6.26-5.73-16.72-6.57-17.49-.41-.33-.78-.43-1-.29a1.13,1.13,0,0,0-.35,1.13c.1.65.89,4.57,1.65,8.37,1.27,6.34,1.51,7.57,1.51,7.74,0,.81-.82.81-1.42.81s-.66,0-3.45-9.47C193,84.05,191.1,77.64,190.56,77a1.89,1.89,0,0,0-1.75-.58.47.47,0,0,0-.35.25C188.41,77.6,191,90,192,94.6c.36,1.68.6,2.86.65,3.11a1.77,1.77,0,0,1-.8,1.86,1.18,1.18,0,0,1-1.31.05c-.25-.18-.37-.46-2.77-8.09-1.62-5.14-4.06-12.91-4.58-13.57a1.81,1.81,0,0,0-1.46-.2c-.38.17-.63.62-.75,1.34-.22,1.31,1.91,8.57,3.47,13.87,1.93,6.55,2.24,7.79,2.09,8.24a1.63,1.63,0,0,1-1.44,1.15,1,1,0,0,1-1-.62c-.33-.76-7.3-13.25-8.37-14.43Z" style="fill:#263238"></path><path d="M197.1,127a.49.49,0,0,1-.45-.29,5.41,5.41,0,0,1-.56-2.7c.22-3.77,4-7.21,4.2-7.35a.5.5,0,1,1,.67.75s-3.68,3.3-3.87,6.66a4.39,4.39,0,0,0,.46,2.21.5.5,0,0,1-.24.67A.54.54,0,0,1,197.1,127Z" style="fill:#263238"></path><path d="M200.41,130.47a.47.47,0,0,1-.25-.07,10.35,10.35,0,0,1-2.1-1.7.5.5,0,0,1,0-.71.49.49,0,0,1,.7,0,10.13,10.13,0,0,0,1.88,1.53.5.5,0,0,1-.25.93Z" style="fill:#263238"></path><path d="M186.18,103.28a.52.52,0,0,1-.44-.25.5.5,0,0,1,.19-.68c.25-.15,6.11-3.47,10.63-3.68a.5.5,0,0,1,.53.47.51.51,0,0,1-.48.53c-4.29.2-10.12,3.51-10.18,3.54A.47.47,0,0,1,186.18,103.28Z" style="fill:#263238"></path><path d="M246.9,331.61S234.12,367.38,229,396.06a515.91,515.91,0,0,0-6.53,56.5H189.83s7.95-61.33,7.67-64.17,6.24-49.12,6.81-54.79-1.13-14.48-4.83-22.15-8.8-17.89-7.66-25.27a94,94,0,0,1,2.84-12.78s1.13-19.3.28-29.24-2-28.11-2-28.11,8.24-6.24,16.19-6.81,14.76,4,14.76,4,1.14,27.26,3.69,35.49,7.67,23,7.67,23,9.65,15.62,10.5,27.26-3.12,18.17-2.27,22.71A49.31,49.31,0,0,0,246.9,331.61Z" style="fill:#92E3A9"></path><path d="M222.48,453.06H189.83a.5.5,0,0,1-.49-.57c2.74-21.19,7.88-61.85,7.66-64.05-.18-1.76,2-18.13,4.59-37.72,1.09-8.16,2-15.2,2.22-17.17.6-5.93-1.33-14.72-4.78-21.88l-.41-.86c-3.75-7.77-8.41-17.44-7.3-24.71a98.66,98.66,0,0,1,2.84-12.79c.07-1.2,1.1-19.59.28-29.11-.84-9.83-2-27.93-2-28.12a.49.49,0,0,1,.19-.43c.34-.25,8.45-6.34,16.45-6.91s14.8,3.87,15.08,4.06a.51.51,0,0,1,.22.39c0,.27,1.16,27.29,3.67,35.37,2.45,7.88,7.31,21.95,7.64,22.93.7,1.13,9.72,16,10.55,27.43a50.32,50.32,0,0,1-1.5,15.77c-.62,2.83-1.12,5.06-.78,6.89a49.47,49.47,0,0,0,3.37,9.81.53.53,0,0,1,0,.39c-.13.35-12.82,36.06-17.87,64.37A523,523,0,0,0,223,452.58.5.5,0,0,1,222.48,453.06Zm-32.08-1H222A521.59,521.59,0,0,1,228.52,396c4.87-27.3,16.82-61.45,17.84-64.34a48.58,48.58,0,0,1-3.36-9.87c-.38-2,.14-4.34.79-7.28A49.74,49.74,0,0,0,245.26,299c-.83-11.38-10.33-26.87-10.43-27a.3.3,0,0,1,0-.1c-.06-.14-5.15-14.86-7.68-23-2.44-7.86-3.57-32.37-3.7-35.35-1.2-.74-7.32-4.25-14.24-3.76s-14.36,5.59-15.7,6.55c.15,2.31,1.18,18.67,2,27.83.85,9.86-.27,29.12-.28,29.31a.42.42,0,0,1,0,.12,98,98,0,0,0-2.82,12.71c-1.07,6.95,3.52,16.47,7.21,24.11l.42.86c3.52,7.32,5.48,16.33,4.87,22.42-.2,2-1.14,9-2.23,17.2-2,15.07-4.76,35.7-4.59,37.49C198.27,391.09,191.25,445.5,190.4,452.06Z" style="fill:#263238"></path><path d="M213.32,305a.59.59,0,0,1-.22-.05.5.5,0,0,1-.23-.67c1.55-3.2,3-5.4,4.47-6.55a.5.5,0,1,1,.63.77c-1.3,1.06-2.71,3.15-4.2,6.22A.49.49,0,0,1,213.32,305Z" style="fill:#263238"></path><path d="M206,326.43h-.12a.51.51,0,0,1-.36-.61A156.55,156.55,0,0,1,210.84,309a.51.51,0,0,1,.65-.28.5.5,0,0,1,.28.65,153.79,153.79,0,0,0-5.27,16.72A.5.5,0,0,1,206,326.43Z" style="fill:#263238"></path><path d="M206.3,317.06a.5.5,0,0,1-.5-.5,87.28,87.28,0,0,1,4-25.72.5.5,0,0,1,.95.33,86.12,86.12,0,0,0-3.95,25.39A.5.5,0,0,1,206.3,317.06Z" style="fill:#263238"></path><path d="M226.17,369.3h-.08c-15.9-2.56-23.52-12-23.59-12.11a.51.51,0,0,1,.08-.71.5.5,0,0,1,.7.09c.08.09,7.47,9.25,23,11.74a.5.5,0,0,1,.42.57A.5.5,0,0,1,226.17,369.3Z" style="fill:#263238"></path><path d="M216.52,391.45h0a.5.5,0,0,1-.47-.54c.11-1.65.29-3.52.53-5.56a.5.5,0,1,1,1,.11c-.24,2-.41,3.88-.52,5.52A.5.5,0,0,1,216.52,391.45Z" style="fill:#263238"></path><path d="M217.84,380h-.08a.51.51,0,0,1-.42-.57c1.62-10.87,4.06-22,4.09-22.13a.5.5,0,0,1,1,.21c0,.11-2.45,11.24-4.07,22.07A.49.49,0,0,1,217.84,380Z" style="fill:#263238"></path><path d="M279.79,216.61s-6.9-6.41-16,2.46-9.86,22.91-10.35,29.81S237.17,246.42,230,260s2.95,23.15,7.14,28.08,2.71,10.84-2.46,15.28-8.13,12.31-3.21,18.72,13.06,6.65,10.84,11.08-6.16,1.73-6.16,1.73,3.21,7.64,11.09,2.46,7.88-14.29,4.93-19-2-11.33,1.23-12.31,8.87-5.42,7.88-12.08-4.43-18.47-1-24.88,4.43-15,4.43-15,10.59-3.7,13.06-6.66a30.55,30.55,0,0,0,4.19-7.88S290.14,227.94,279.79,216.61Z" style="fill:#263238"></path><path d="M242.16,339.62a6.35,6.35,0,0,1-1.84-.27,8.07,8.07,0,0,1-4.6-4.3l-.65-1.55,1.4.95a4.3,4.3,0,0,0,3.11.63,3.75,3.75,0,0,0,2.32-2.17c1-2-.34-2.86-3.44-4.67a23.42,23.42,0,0,1-7.35-5.89c-5.06-6.56-2.18-14.73,3.27-19.4,5.28-4.53,6.2-10.11,2.41-14.57-.33-.4-.7-.82-1.1-1.27-4.49-5.1-12.84-14.6-6.11-27.38,4.3-8.15,11.63-8.27,17-8.36,4.07-.07,6.2-.21,6.37-2.52l0-.61c.51-7.26,1.46-20.78,10.46-29.53,9.35-9.09,16.63-2.53,16.7-2.47l0,0c10.11,11.07,2.92,22.54,2.3,23.48a30.58,30.58,0,0,1-4.26,8c-2.32,2.79-11.21,6.07-13,6.7-.21,1.63-1.33,9.09-4.45,14.9-2.68,5-1.07,13.31.22,20,.32,1.66.62,3.22.82,4.56,1.07,7.22-5.21,11.69-8.23,12.62a3.67,3.67,0,0,0-2.13,2.42,11.08,11.08,0,0,0,1.17,9.16,14.57,14.57,0,0,1-5.08,19.65A10,10,0,0,1,242.16,339.62ZM237.42,336a6.37,6.37,0,0,0,3.2,2.43c1.86.56,4,.06,6.38-1.49,7.53-5,7.61-13.8,4.77-18.29a12,12,0,0,1-1.26-10,4.62,4.62,0,0,1,2.77-3c2.77-.85,8.51-4.94,7.54-11.52-.2-1.33-.5-2.88-.81-4.52-1.32-6.86-3-15.4-.12-20.67,3.36-6.25,4.36-14.77,4.37-14.85l0-.31.3-.11c.1,0,10.49-3.68,12.83-6.5a29.91,29.91,0,0,0,4.1-7.72l.07-.13A17.76,17.76,0,0,0,279.43,217c-.42-.38-6.77-5.83-15.31,2.47-8.71,8.48-9.65,21.75-10.15,28.88l0,.61c-.24,3.33-3.54,3.39-7.35,3.45-5.39.09-12.09.2-16.11,7.83-6.42,12.16,1.34,21,6,26.25l1.11,1.28c4.13,4.85,3.14,11.13-2.52,16-5.09,4.36-7.8,12-3.13,18a22.7,22.7,0,0,0,7.06,5.63c2.84,1.66,5.28,3.09,3.83,6a4.68,4.68,0,0,1-3,2.69A4.47,4.47,0,0,1,237.42,336Z" style="fill:#263238"></path><path d="M280.77,227.57s-1.48,8.9-6.23,14.83S258.83,254,258.83,254s-2.67,19-1.49,27.88,11.72,23.93,23,24.52,16.06-3.4,20.9-7.92c6-5.55,10.68-17.49,11-21.35s-2.37-7.71-3-13.64,3.26-9.78-3-13.93-15.42-.3-18.09-6.82S285.51,226.68,280.77,227.57Z" style="fill:#c7c7c7"></path><path d="M282.53,306.92c-.72,0-1.45,0-2.22-.06-11.19-.58-22.2-15.52-23.46-25-1.18-8.86,1.37-27.23,1.48-28a.47.47,0,0,1,.27-.37c.11-.06,10.93-5.66,15.55-11.43s6.11-14.51,6.13-14.6a.49.49,0,0,1,.4-.41c3.71-.69,4.82,3.92,6,8.8a46.85,46.85,0,0,0,2,6.63c1.4,3.44,4.81,3.76,8.75,4.13,3,.29,6.37.61,9.15,2.46,4.5,3,4,5.91,3.5,9.29a19.31,19.31,0,0,0-.32,5,33.79,33.79,0,0,0,1.72,7.24c.76,2.36,1.41,4.39,1.25,6.49-.32,4.17-5.24,16.19-11.13,21.68C296.66,303.39,292.06,306.92,282.53,306.92Zm-23.24-52.63c-.31,2.28-2.54,19.31-1.45,27.48,1.22,9.11,11.79,23.53,22.52,24.1,11.51.59,16.31-3.86,20.53-7.79,6.06-5.65,10.54-17.53,10.81-21a16.48,16.48,0,0,0-1.2-6.1,34.31,34.31,0,0,1-1.76-7.45,20,20,0,0,1,.32-5.26c.52-3.29.9-5.66-3.07-8.31-2.57-1.71-5.68-2-8.68-2.29-4.09-.39-7.95-.75-9.59-4.75a49.1,49.1,0,0,1-2-6.77c-1.07-4.41-2-8.25-4.52-8.1-.34,1.77-2,9.34-6.27,14.69C270.5,248.25,260.94,253.42,259.29,254.29Z" style="fill:#263238"></path><path d="M279.65,263.23c-.33,1.67-1.48,2.85-2.58,2.64s-1.71-1.75-1.38-3.42,1.48-2.85,2.57-2.63S280,261.56,279.65,263.23Z" style="fill:#263238"></path><path d="M300.2,269.92c-.59,1.59-1.91,2.58-3,2.2s-1.42-2-.84-3.59,1.91-2.59,3-2.2S300.78,268.32,300.2,269.92Z" style="fill:#263238"></path><path d="M286.86,279.3a10,10,0,0,1-2.6-.33c-4.28-1.13-5.42-5.91-5.46-6.11a.5.5,0,0,1,.37-.6.5.5,0,0,1,.6.38s1.05,4.39,4.75,5.37,7-.75,7.28-1.2a.48.48,0,0,1,.62-.3.52.52,0,0,1,.31.65C292.45,278,289.92,279.3,286.86,279.3Z" style="fill:#263238"></path><path d="M273.72,278.94a21.73,21.73,0,0,0,9.46,6.31c6.71,2.45,10.49.44,10.49.44s-5.38,6.05-11.92,4.42S273.72,278.94,273.72,278.94Z" style="fill:#fff"></path><path d="M284.06,290.89a9.85,9.85,0,0,1-2.43-.3c-6.71-1.68-8.33-11.17-8.4-11.57a.5.5,0,0,1,.89-.39,21.55,21.55,0,0,0,9.23,6.15c6.38,2.33,10,.49,10.08.47a.51.51,0,0,1,.63.14.5.5,0,0,1,0,.64C293.84,286.25,289.64,290.89,284.06,290.89Zm-9.41-10.22c.8,2.77,2.84,7.85,7.23,8.95,4.15,1,7.86-1.23,9.86-2.83a16.84,16.84,0,0,1-8.73-1.08A24.14,24.14,0,0,1,274.65,280.67Z" style="fill:#263238"></path><path d="M282.84,257.21a1,1,0,0,1-.59-.19,8.7,8.7,0,0,0-9.52-.81,1,1,0,0,1-1.05-1.7,10.67,10.67,0,0,1,11.75.89,1,1,0,0,1-.59,1.81Z" style="fill:#263238"></path><path d="M305,265.93a1,1,0,0,1-.95-.7c-1.63-5.25-7.94-4.05-8.21-4a1,1,0,1,1-.39-2c2.88-.57,8.78-.19,10.51,5.36a1,1,0,0,1-.66,1.26A1,1,0,0,1,305,265.93Z" style="fill:#263238"></path><path d="M258.11,259.72s-3.2-6.16-6.9-.74,5.67,17,5.67,17Z" style="fill:#c7c7c7"></path><path d="M256.88,276.48a.51.51,0,0,1-.39-.19c-.39-.48-9.55-11.93-5.69-17.59,1.16-1.7,2.41-2.53,3.76-2.44,2.36.14,3.93,3.1,4,3.23a.51.51,0,0,1,.06.27L257.38,276a.52.52,0,0,1-.35.44Zm-2.49-19.23c-.93,0-1.85.68-2.77,2-2.82,4.15,2.72,12.46,4.86,15.37l1.12-14.8c-.29-.51-1.53-2.48-3.1-2.58Z" style="fill:#263238"></path><path d="M283,329.44s-7.14,38.68-6.9,71.69,1,51.49,1,51.49H336.2a197.74,197.74,0,0,0,1-39.42c-1.73-20.45-5.91-64.05-9.61-71.2s-13.3-9.6-20.69-11.82a98.06,98.06,0,0,1-13.8-5.42s.25-5.17-2.95-6.16a8.61,8.61,0,0,0-5.18-.25Z" style="fill:#92E3A9"></path><path d="M336.2,453.12H277.08a.5.5,0,0,1-.5-.48c0-.19-.74-18.87-1-51.51s6.81-71.27,6.91-71.78l2-11.08a.48.48,0,0,1,.32-.38,9,9,0,0,1,5.49.23c3.07.95,3.31,5.1,3.32,6.33A98.68,98.68,0,0,0,307,329.7l1.35.4c7.16,2.13,16.07,4.77,19.65,11.67,4,7.81,8.41,56.62,9.66,71.39a199.46,199.46,0,0,1-1,39.53A.51.51,0,0,1,336.2,453.12Zm-58.64-1h58.21a199.59,199.59,0,0,0,.92-38.88c-.88-10.48-5.5-63.16-9.55-71-3.38-6.52-12.06-9.1-19-11.17l-1.36-.4a100.05,100.05,0,0,1-13.87-5.45.51.51,0,0,1-.28-.47c0-.05.19-4.8-2.6-5.66a9,9,0,0,0-4.59-.33l-1.92,10.78h0c-.07.39-7.13,39-6.89,71.59C276.82,430.86,277.44,449,277.56,452.12ZM283,329.44h0Z" style="fill:#263238"></path><path d="M319.62,369.11h-.09a.51.51,0,0,1-.41-.58c1-5.54,1.56-9.12,1.56-9.12a.52.52,0,0,1,.58-.41.51.51,0,0,1,.41.58l-1.56,9.12A.49.49,0,0,1,319.62,369.11Z" style="fill:#263238"></path><path d="M298.26,452.62a.44.44,0,0,1-.22-.05.49.49,0,0,1-.22-.67c.07-.15,7.4-14.83,9.82-22.35,1.64-5.08,7-35.39,10.1-53a.48.48,0,0,1,.57-.4.49.49,0,0,1,.41.58C315,398.27,310.17,425,308.6,429.86c-2.45,7.58-9.81,22.34-9.89,22.49A.5.5,0,0,1,298.26,452.62Z" style="fill:#263238"></path><path d="M309.84,429.22a.49.49,0,0,1-.32-.12.52.52,0,0,1-.06-.71c.32-.37,8-9.07,18-7.31a.5.5,0,0,1-.17,1c-9.47-1.65-16.95,6.89-17,7A.52.52,0,0,1,309.84,429.22Z" style="fill:#263238"></path><path d="M319,421.09a.5.5,0,0,1-.15-1c.34-.1,8.33-2.49,12.13-1.23a.52.52,0,0,1,.32.64.5.5,0,0,1-.63.31c-3.5-1.16-11.45,1.21-11.53,1.24Z" style="fill:#263238"></path><path d="M286.81,354.33c-2.11,0-3.83-2.16-3.83-4.81s1.72-4.81,3.83-4.81,3.83,2.15,3.83,4.81S288.92,354.33,286.81,354.33Zm0-8.62c-1.56,0-2.83,1.71-2.83,3.81s1.27,3.81,2.83,3.81,2.83-1.71,2.83-3.81S288.37,345.71,286.81,345.71Z" style="fill:#263238"></path><path d="M285.82,390.54a5.19,5.19,0,1,1,4.82-5.18A5,5,0,0,1,285.82,390.54Zm0-9.36a4.2,4.2,0,1,0,3.82,4.18A4,4,0,0,0,285.82,381.18Z" style="fill:#263238"></path><path d="M283.85,433.16a5.19,5.19,0,1,1,4.81-5.18A5,5,0,0,1,283.85,433.16Zm0-9.36a4.2,4.2,0,1,0,3.81,4.18A4,4,0,0,0,283.85,423.8Z" style="fill:#263238"></path><path d="M312.55,392.27h0c-1.24,0-2.66-.17-4.23-.37a.5.5,0,0,1,.13-1,40.84,40.84,0,0,0,4.13.37.5.5,0,0,1,0,1Z" style="fill:#263238"></path><path d="M302.6,390.9h-.1c-5.9-1.22-11.22-2.82-11.28-2.83a.51.51,0,0,1-.33-.63.5.5,0,0,1,.62-.33c.05,0,5.34,1.61,11.19,2.81a.51.51,0,0,1,.39.59A.5.5,0,0,1,302.6,390.9Z" style="fill:#263238"></path><path d="M281.51,343.49l-.17,0a.5.5,0,0,1-.3-.64c3-8.13,10.38-16.34,10.45-16.43a.5.5,0,0,1,.74.68c-.07.08-7.36,8.15-10.25,16.09A.5.5,0,0,1,281.51,343.49Z" style="fill:#263238"></path></g><g id="freepik--books-2--inject-56"><path d="M336.94,442.19a6.91,6.91,0,0,1,0,8.58h61.5l1.82-4.68-2.34-4.16Z" style="fill:#fff"></path><path d="M398.44,451.27h-61.5a.5.5,0,0,1-.45-.27.51.51,0,0,1,0-.52,6.45,6.45,0,0,0,0-8,.49.49,0,0,1,.37-.82l61-.26h0a.52.52,0,0,1,.44.25l2.34,4.16a.5.5,0,0,1,0,.43L398.91,451A.49.49,0,0,1,398.44,451.27Zm-60.58-1H398.1l1.61-4.14-2.08-3.7-59.76.25A7.32,7.32,0,0,1,337.86,450.27Z" style="fill:#263238"></path><path d="M398.44,450.56v-7.85H340.69v-2h76.84a5.89,5.89,0,1,1,0,11.77H340.69v-2Z" style="fill:#92E3A9"></path><path d="M417.53,453H340.69a.5.5,0,0,1-.5-.5v-2a.5.5,0,0,1,.5-.5h57.25v-6.85H340.69a.51.51,0,0,1-.5-.5v-2a.5.5,0,0,1,.5-.5h76.84a6.39,6.39,0,1,1,0,12.77Zm-76.34-1h76.34a5.39,5.39,0,1,0,0-10.77H341.19v1h57.25a.5.5,0,0,1,.5.5v7.85a.5.5,0,0,1-.5.5H341.19Z" style="fill:#263238"></path><path d="M398.44,446.63h0a3.92,3.92,0,0,0-3.92-3.92H334.6v-2h61a5.65,5.65,0,0,1,5.64,5.64h0a6.12,6.12,0,0,1-6.13,6.13H334.6v-2h59.92A3.92,3.92,0,0,0,398.44,446.63Z" style="fill:#92E3A9"></path><path d="M395.14,453H334.6a.5.5,0,0,1-.5-.5v-2a.5.5,0,0,1,.5-.5h59.92a3.43,3.43,0,0,0,0-6.85H334.6a.5.5,0,0,1-.5-.5v-2a.5.5,0,0,1,.5-.5h61a6.15,6.15,0,0,1,6.14,6.14A6.63,6.63,0,0,1,395.14,453Zm-60-1h60a5.63,5.63,0,0,0,5.63-5.63,5.15,5.15,0,0,0-5.14-5.14H335.1v1h59.42a4.43,4.43,0,0,1,0,8.85H335.1Z" style="fill:#263238"></path><path d="M336.17,418a6.89,6.89,0,0,1,0,8.58h61.51l1.82-4.68-2.34-4.16Z" style="fill:#fff"></path><path d="M397.68,427.09H336.17a.5.5,0,0,1-.4-.79,6.47,6.47,0,0,0,0-8,.49.49,0,0,1,.37-.82l61-.26h0a.5.5,0,0,1,.44.25l2.34,4.16a.54.54,0,0,1,0,.43l-1.82,4.68A.51.51,0,0,1,397.68,427.09Zm-60.58-1h60.24L399,422l-2.08-3.7-59.76.25A7.32,7.32,0,0,1,337.1,426.09Z" style="fill:#263238"></path><path d="M397.68,426.38v-7.85H339.93v-2h76.84a5.89,5.89,0,0,1,0,11.77H339.93v-2Z" style="fill:#92E3A9"></path><path d="M416.77,428.84H339.93a.5.5,0,0,1-.5-.5v-2a.5.5,0,0,1,.5-.5h57.25V419H339.93a.5.5,0,0,1-.5-.5v-2a.5.5,0,0,1,.5-.5h76.84a6.39,6.39,0,0,1,0,12.77Zm-76.34-1h76.34a5.39,5.39,0,0,0,0-10.77H340.43v1h57.25a.5.5,0,0,1,.5.5v7.85a.5.5,0,0,1-.5.5H340.43Z" style="fill:#263238"></path><path d="M397.68,422.45h0a3.92,3.92,0,0,0-3.93-3.92H333.83v-2h61a5.64,5.64,0,0,1,5.65,5.64h0a6.12,6.12,0,0,1-6.13,6.13H333.83v-2h59.92A3.93,3.93,0,0,0,397.68,422.45Z" style="fill:#92E3A9"></path><path d="M394.38,428.84H333.83a.5.5,0,0,1-.5-.5v-2a.5.5,0,0,1,.5-.5h59.93a3.43,3.43,0,0,0,0-6.85H333.83a.51.51,0,0,1-.5-.5v-2a.5.5,0,0,1,.5-.5h61a6.15,6.15,0,0,1,6.15,6.14A6.63,6.63,0,0,1,394.38,428.84Zm-60.05-1h60.05a5.64,5.64,0,0,0,5.63-5.63,5.15,5.15,0,0,0-5.15-5.14H334.33v1h59.43a4.43,4.43,0,0,1,0,8.85H334.33Z" style="fill:#263238"></path><path d="M341.1,430.48a6.91,6.91,0,0,1,0,8.58h61.5l1.82-4.68-2.34-4.16Z" style="fill:#fff"></path><path d="M402.6,439.56H341.1a.5.5,0,0,1-.45-.27.51.51,0,0,1,0-.52,6.38,6.38,0,0,0,0-8,.5.5,0,0,1,.37-.83l61-.26h0a.52.52,0,0,1,.44.25l2.34,4.17a.51.51,0,0,1,0,.42l-1.82,4.69A.49.49,0,0,1,402.6,439.56Zm-60.58-1h60.24l1.61-4.14-2.08-3.7L342,431A7.31,7.31,0,0,1,342,438.56Z" style="fill:#263238"></path><path d="M402.6,438.85V431H344.85v-2h76.84a5.89,5.89,0,1,1,0,11.77H344.85v-2Z" style="fill:#263238"></path><path d="M421.69,441.31H344.85a.5.5,0,0,1-.5-.5v-2a.51.51,0,0,1,.5-.5H402.1V431.5H344.85a.5.5,0,0,1-.5-.5v-2a.5.5,0,0,1,.5-.5h76.84a6.39,6.39,0,1,1,0,12.77Zm-76.34-1h76.34a5.39,5.39,0,1,0,0-10.77H345.35v1H402.6a.5.5,0,0,1,.5.5v7.85a.5.5,0,0,1-.5.5H345.35Z" style="fill:#263238"></path><path d="M402.6,434.93h0a3.92,3.92,0,0,0-3.92-3.93H338.76v-2h61a5.65,5.65,0,0,1,5.64,5.65h0a6.12,6.12,0,0,1-6.13,6.12H338.76v-2h59.92A3.92,3.92,0,0,0,402.6,434.93Z" style="fill:#92E3A9"></path><path d="M399.3,441.31H338.76a.5.5,0,0,1-.5-.5v-2a.5.5,0,0,1,.5-.5h59.92a3.43,3.43,0,0,0,0-6.85H338.76a.5.5,0,0,1-.5-.5v-2a.5.5,0,0,1,.5-.5h61a6.16,6.16,0,0,1,6.14,6.15A6.63,6.63,0,0,1,399.3,441.31Zm-60-1h60a5.63,5.63,0,0,0,5.63-5.62,5.15,5.15,0,0,0-5.14-5.15H339.26v1h59.42a4.43,4.43,0,0,1,0,8.85H339.26Z" style="fill:#263238"></path></g><g id="freepik--book-1--inject-56"><path d="M206.64,446.69s-1-5.83-14.9-8.1-24.63,1.62-34,5.18-23.65,7.78-33,8.75H300.59s-26.65-6.6-50.62-17.29S208.91,438.91,206.64,446.69Z" style="fill:#fff"></path><path d="M300.59,453H124.67a.5.5,0,0,1,0-1c9.39-1,23.65-5.2,32.92-8.71,8.87-3.37,19.9-7.55,34.28-5.21,10.28,1.67,13.69,5.29,14.79,7.22,1.61-3.59,5.9-8.31,12.49-11.36s17.25-5.35,31.07.81c23.66,10.55,50.27,17.2,50.54,17.27a.49.49,0,0,1,.37.54A.5.5,0,0,1,300.59,453Zm-169.43-1H296.72c-8.19-2.22-28.47-8.09-47-16.34-13.47-6-23.88-3.76-30.24-.81-7.08,3.28-11.39,8.5-12.4,12a.5.5,0,0,1-.51.36.51.51,0,0,1-.46-.42c0-.08-1.22-5.53-14.5-7.69-14.1-2.29-25,1.84-33.75,5.16A180.65,180.65,0,0,1,131.16,452Z" style="fill:#263238"></path><path d="M206.64,451.84s-1-5.83-14.9-8.09-24.63,1.61-34,5.18c-3.1,1.17-6.72,2.41-10.52,3.59H282.61A309.48,309.48,0,0,1,250,440.38C226,429.69,208.91,444.07,206.64,451.84Z" style="fill:#263238"></path><path d="M206.5,454.09l-.17-1.07H143.89l3.16-1c3.72-1.15,7.35-2.39,10.49-3.58,8.87-3.36,19.9-7.55,34.28-5.21,10.28,1.68,13.69,5.29,14.79,7.23,1.61-3.59,5.91-8.32,12.49-11.36s17.25-5.36,31.07.81A306.56,306.56,0,0,0,282.76,452l3.11,1H206.82Zm.61-2.07h72.28a300.68,300.68,0,0,1-29.63-11.18c-13.47-6-23.88-3.76-30.24-.82-7.08,3.28-11.39,8.5-12.4,12Zm-56.69,0h55.74v-.09c0-.11-1.25-5.54-14.5-7.69-14.1-2.29-25,1.84-33.75,5.16C155.61,450.26,153.07,451.16,150.42,452Z" style="fill:#263238"></path></g><g id="freepik--Table--inject-56"><path d="M439.4,453H66.85a.5.5,0,0,1,0-1H439.4a.5.5,0,0,1,0,1Z" style="fill:#263238"></path><path d="M439.4,459.72H66.85a.5.5,0,0,1-.5-.5.5.5,0,0,1,.5-.5H439.4a.5.5,0,0,1,.5.5A.5.5,0,0,1,439.4,459.72Z" style="fill:#263238"></path></g></svg>